<svg xmlns="http://www.w3.org/2000/svg" xmlns:xlink="http://www.w3.org/1999/xlink" width="1280" zoomAndPan="magnify" viewBox="0 0 960 540.000001" height="720" preserveAspectRatio="xMidYMid meet" version="1.0"><defs><clipPath id="1a180a6c98"><path d="M 0.886719 0 L 959.113281 0 L 959.113281 539 L 0.886719 539 Z M 0.886719 0 " clip-rule="nonzero"/></clipPath><clipPath id="38b7220d3f"><path d="M 530.171875 244 L 959.113281 244 L 959.113281 539 L 530.171875 539 Z M 530.171875 244 " clip-rule="nonzero"/></clipPath><clipPath id="fcd5dd6afd"><path d="M 0.886719 0 L 479 0 L 479 316.414062 L 0.886719 316.414062 Z M 0.886719 0 " clip-rule="nonzero"/></clipPath><clipPath id="987ca305a1"><path d="M 0.886719 0 L 270 0 L 270 126.699219 L 0.886719 126.699219 Z M 0.886719 0 " clip-rule="nonzero"/></clipPath><clipPath id="3b54fc1307"><path d="M 732.769531 0 L 900.460938 0 L 900.460938 43.605469 L 732.769531 43.605469 Z M 732.769531 0 " clip-rule="nonzero"/></clipPath><clipPath id="fb89213e9d"><path d="M 78.5 457 L 183.308594 457 L 183.308594 539 L 78.5 539 Z M 78.5 457 " clip-rule="nonzero"/></clipPath><clipPath id="9190eb89a7"><path d="M 202.996094 457 L 307.636719 457 L 307.636719 539 L 202.996094 539 Z M 202.996094 457 " clip-rule="nonzero"/></clipPath><clipPath id="fbfa746124"><path d="M 191.503906 80.773438 L 214.484375 80.773438 L 214.484375 103.757812 L 191.503906 103.757812 Z M 191.503906 80.773438 " clip-rule="nonzero"/></clipPath><clipPath id="df04e967f8"><path d="M 202.996094 80.773438 C 196.648438 80.773438 191.503906 85.917969 191.503906 92.265625 C 191.503906 98.609375 196.648438 103.757812 202.996094 103.757812 C 209.339844 103.757812 214.484375 98.609375 214.484375 92.265625 C 214.484375 85.917969 209.339844 80.773438 202.996094 80.773438 Z M 202.996094 80.773438 " clip-rule="nonzero"/></clipPath><clipPath id="7a4d0e7952"><path d="M 732.769531 241.429688 L 783.824219 241.429688 L 783.824219 292.484375 L 732.769531 292.484375 Z M 732.769531 241.429688 " clip-rule="nonzero"/></clipPath><clipPath id="6c9e6680e1"><path d="M 758.296875 241.429688 C 744.199219 241.429688 732.769531 252.859375 732.769531 266.957031 C 732.769531 281.054688 744.199219 292.484375 758.296875 292.484375 C 772.394531 292.484375 783.824219 281.054688 783.824219 266.957031 C 783.824219 252.859375 772.394531 241.429688 758.296875 241.429688 Z M 758.296875 241.429688 " clip-rule="nonzero"/></clipPath><clipPath id="90890d6985"><path d="M 0.886719 225 L 54 225 L 54 368.714844 L 0.886719 368.714844 Z M 0.886719 225 " clip-rule="nonzero"/></clipPath><clipPath id="ae18df180d"><path d="M 0.886719 238 L 41 238 L 41 357 L 0.886719 357 Z M 0.886719 238 " clip-rule="nonzero"/></clipPath><clipPath id="321e474ddf"><path d="M 0.886719 251 L 28 251 L 28 344 L 0.886719 344 Z M 0.886719 251 " clip-rule="nonzero"/></clipPath><clipPath id="1c4c782953"><path d="M 0.886719 262 L 17 262 L 17 332 L 0.886719 332 Z M 0.886719 262 " clip-rule="nonzero"/></clipPath><clipPath id="f421395d3a"><path d="M 0.886719 272 L 7 272 L 7 322 L 0.886719 322 Z M 0.886719 272 " clip-rule="nonzero"/></clipPath><clipPath id="86f88d6e09"><path d="M 544 100 L 567 100 L 567 124 L 544 124 Z M 544 100 " clip-rule="nonzero"/></clipPath><clipPath id="ffd6556c2c"><path d="M 558.625 92.265625 L 575.5625 109.203125 L 561.273438 123.496094 L 544.332031 106.558594 Z M 558.625 92.265625 " clip-rule="nonzero"/></clipPath><clipPath id="5606a3e5a6"><path d="M 558.625 92.265625 L 575.5625 109.203125 L 561.273438 123.496094 L 544.332031 106.558594 Z M 558.625 92.265625 " clip-rule="nonzero"/></clipPath><clipPath id="c11e31e05d"><path d="M 546 102 L 566 102 L 566 122 L 546 122 Z M 546 102 " clip-rule="nonzero"/></clipPath><clipPath id="254491a495"><path d="M 558.625 92.265625 L 575.5625 109.203125 L 561.273438 123.496094 L 544.332031 106.558594 Z M 558.625 92.265625 " clip-rule="nonzero"/></clipPath><clipPath id="09b831feab"><path d="M 558.625 92.265625 L 575.5625 109.203125 L 561.273438 123.496094 L 544.332031 106.558594 Z M 558.625 92.265625 " clip-rule="nonzero"/></clipPath><clipPath id="95ff2f2d29"><path d="M 439 415 L 461 415 L 461 440 L 439 440 Z M 439 415 " clip-rule="nonzero"/></clipPath><clipPath id="d36e0afd1e"><path d="M 440.304688 440.417969 L 438.90625 416.503906 L 459.085938 415.324219 L 460.480469 439.242188 Z M 440.304688 440.417969 " clip-rule="nonzero"/></clipPath><clipPath id="43b6b5a8c5"><path d="M 440.304688 440.417969 L 438.90625 416.503906 L 459.085938 415.324219 L 460.480469 439.242188 Z M 440.304688 440.417969 " clip-rule="nonzero"/></clipPath><clipPath id="63fb170ece"><path d="M 442 417 L 460 417 L 460 438 L 442 438 Z M 442 417 " clip-rule="nonzero"/></clipPath><clipPath id="7daaed0588"><path d="M 440.304688 440.417969 L 438.90625 416.503906 L 459.085938 415.324219 L 460.480469 439.242188 Z M 440.304688 440.417969 " clip-rule="nonzero"/></clipPath><clipPath id="ca29c249d7"><path d="M 440.304688 440.417969 L 438.90625 416.503906 L 459.085938 415.324219 L 460.480469 439.242188 Z M 440.304688 440.417969 " clip-rule="nonzero"/></clipPath></defs><g clip-path="url(#1a180a6c98)"><path fill="#ffffff" d="M 0.886719 0 L 959.113281 0 L 959.113281 539 L 0.886719 539 Z M 0.886719 0 " fill-opacity="1" fill-rule="nonzero"/><path fill="#1b262c" d="M 0.886719 0 L 959.113281 0 L 959.113281 539 L 0.886719 539 Z M 0.886719 0 " fill-opacity="1" fill-rule="nonzero"/></g><g clip-path="url(#38b7220d3f)"><path fill="#3176f4" d="M 530.367188 589.085938 C 538.734375 553.804688 571.710938 454.996094 673.304688 468.820312 C 796.722656 485.792969 824 480.578125 839.519531 396.078125 C 854.308594 316.0625 912.382812 241.863281 974.820312 244.410156 L 974.820312 589.085938 Z M 530.367188 589.085938 " fill-opacity="1" fill-rule="nonzero"/></g><g clip-path="url(#fcd5dd6afd)"><path fill="#3176f4" d="M -224.277344 32.105469 C -224.277344 62.878906 -209.621094 90.355469 -186.910156 107.941406 C -179.949219 113.4375 -183.976562 124.429688 -192.769531 124.429688 L -256.882812 124.429688 C -310.003906 124.792969 -352.867188 167.65625 -352.867188 220.78125 C -352.867188 273.902344 -310.003906 316.765625 -256.882812 316.765625 L 98.117188 316.765625 C 151.242188 316.765625 194.105469 273.902344 194.105469 220.78125 C 194.105469 217.484375 194.105469 214.550781 193.738281 211.621094 C 189.34375 167.292969 223.046875 128.457031 267.375 128.457031 L 382.414062 128.457031 C 435.535156 128.457031 478.398438 85.59375 478.398438 32.472656 C 478.765625 -21.015625 435.902344 -63.878906 382.78125 -63.878906 L -128.289062 -63.878906 C -181.414062 -63.878906 -224.277344 -21.015625 -224.277344 32.105469 Z M -224.277344 32.105469 " fill-opacity="1" fill-rule="nonzero"/></g><g clip-path="url(#987ca305a1)"><path fill="#bbe1fa" d="M -53.324219 -4.367188 C -53.324219 9.773438 -46.589844 22.402344 -36.152344 30.480469 C -32.953125 33.007812 -34.804688 38.058594 -38.84375 38.058594 L -68.304688 38.058594 C -92.71875 38.226562 -112.414062 57.921875 -112.414062 82.335938 C -112.414062 106.746094 -92.71875 126.441406 -68.304688 126.441406 L 94.828125 126.441406 C 119.238281 126.441406 138.933594 106.746094 138.933594 82.335938 C 138.933594 80.820312 138.933594 79.472656 138.765625 78.125 C 136.746094 57.753906 152.234375 39.910156 172.605469 39.910156 L 225.46875 39.910156 C 249.878906 39.910156 269.578125 20.210938 269.578125 -4.199219 C 269.746094 -28.777344 250.046875 -48.476562 225.636719 -48.476562 L -9.214844 -48.476562 C -33.625 -48.476562 -53.324219 -28.777344 -53.324219 -4.367188 Z M -53.324219 -4.367188 " fill-opacity="1" fill-rule="nonzero"/></g><g clip-path="url(#3b54fc1307)"><path fill="#ececec" d="M 736.40625 -46.621094 C 736.40625 -46.394531 736.363281 -46.171875 736.273438 -45.960938 C 736.1875 -45.75 736.0625 -45.566406 735.902344 -45.402344 C 735.738281 -45.242188 735.554688 -45.117188 735.339844 -45.03125 C 735.128906 -44.945312 734.910156 -44.898438 734.683594 -44.902344 C 734.453125 -44.902344 734.234375 -44.945312 734.023438 -45.03125 C 733.8125 -45.121094 733.625 -45.246094 733.464844 -45.40625 C 733.304688 -45.566406 733.179688 -45.753906 733.09375 -45.964844 C 733.003906 -46.175781 732.960938 -46.394531 732.960938 -46.625 C 732.964844 -46.851562 733.007812 -47.074219 733.09375 -47.285156 C 733.183594 -47.496094 733.308594 -47.679688 733.46875 -47.839844 C 733.632812 -48.003906 733.816406 -48.125 734.027344 -48.214844 C 734.238281 -48.300781 734.460938 -48.34375 734.6875 -48.34375 C 734.917969 -48.34375 735.136719 -48.296875 735.347656 -48.210938 C 735.554688 -48.125 735.742188 -48 735.902344 -47.835938 C 736.0625 -47.675781 736.1875 -47.488281 736.273438 -47.28125 C 736.363281 -47.070312 736.40625 -46.851562 736.40625 -46.621094 Z M 752.894531 -48.34375 C 752.667969 -48.34375 752.449219 -48.300781 752.238281 -48.214844 C 752.027344 -48.125 751.839844 -48.003906 751.675781 -47.839844 C 751.515625 -47.679688 751.390625 -47.496094 751.304688 -47.285156 C 751.214844 -47.074219 751.171875 -46.851562 751.171875 -46.625 C 751.171875 -46.394531 751.214844 -46.175781 751.300781 -45.964844 C 751.386719 -45.753906 751.511719 -45.566406 751.671875 -45.40625 C 751.835938 -45.246094 752.019531 -45.121094 752.230469 -45.03125 C 752.441406 -44.945312 752.660156 -44.902344 752.890625 -44.902344 C 753.117188 -44.898438 753.339844 -44.945312 753.550781 -45.03125 C 753.761719 -45.117188 753.945312 -45.242188 754.109375 -45.402344 C 754.269531 -45.566406 754.394531 -45.75 754.480469 -45.960938 C 754.570312 -46.171875 754.613281 -46.394531 754.613281 -46.621094 C 754.613281 -46.851562 754.570312 -47.070312 754.480469 -47.28125 C 754.394531 -47.488281 754.269531 -47.675781 754.109375 -47.835938 C 753.949219 -48 753.765625 -48.125 753.554688 -48.210938 C 753.34375 -48.296875 753.125 -48.34375 752.894531 -48.34375 Z M 771.097656 -48.34375 C 770.871094 -48.34375 770.652344 -48.300781 770.441406 -48.210938 C 770.230469 -48.125 770.042969 -48 769.882812 -47.839844 C 769.722656 -47.675781 769.597656 -47.492188 769.507812 -47.28125 C 769.421875 -47.070312 769.378906 -46.851562 769.378906 -46.621094 C 769.378906 -46.394531 769.421875 -46.175781 769.507812 -45.964844 C 769.597656 -45.753906 769.722656 -45.566406 769.882812 -45.40625 C 770.042969 -45.242188 770.230469 -45.117188 770.441406 -45.03125 C 770.652344 -44.945312 770.871094 -44.902344 771.097656 -44.902344 C 771.328125 -44.902344 771.546875 -44.945312 771.757812 -45.03125 C 771.96875 -45.117188 772.15625 -45.242188 772.316406 -45.40625 C 772.476562 -45.566406 772.601562 -45.753906 772.691406 -45.964844 C 772.777344 -46.175781 772.820312 -46.394531 772.820312 -46.621094 C 772.820312 -46.851562 772.777344 -47.070312 772.691406 -47.28125 C 772.601562 -47.492188 772.476562 -47.675781 772.316406 -47.839844 C 772.15625 -48 771.96875 -48.125 771.757812 -48.210938 C 771.546875 -48.300781 771.328125 -48.34375 771.097656 -48.34375 Z M 789.316406 -48.34375 C 789.085938 -48.34375 788.867188 -48.300781 788.65625 -48.210938 C 788.445312 -48.125 788.261719 -48 788.097656 -47.839844 C 787.9375 -47.675781 787.8125 -47.492188 787.726562 -47.28125 C 787.636719 -47.070312 787.59375 -46.851562 787.59375 -46.621094 C 787.59375 -46.394531 787.636719 -46.175781 787.726562 -45.964844 C 787.8125 -45.753906 787.9375 -45.566406 788.097656 -45.40625 C 788.261719 -45.242188 788.445312 -45.117188 788.65625 -45.03125 C 788.867188 -44.945312 789.085938 -44.902344 789.316406 -44.902344 C 789.542969 -44.902344 789.765625 -44.945312 789.976562 -45.03125 C 790.1875 -45.117188 790.371094 -45.242188 790.53125 -45.40625 C 790.695312 -45.566406 790.820312 -45.753906 790.90625 -45.964844 C 790.992188 -46.175781 791.039062 -46.394531 791.039062 -46.621094 C 791.039062 -46.851562 790.992188 -47.070312 790.90625 -47.28125 C 790.820312 -47.492188 790.695312 -47.675781 790.53125 -47.839844 C 790.371094 -48 790.1875 -48.125 789.976562 -48.210938 C 789.765625 -48.300781 789.542969 -48.34375 789.316406 -48.34375 Z M 807.523438 -48.34375 C 807.296875 -48.34375 807.074219 -48.300781 806.863281 -48.210938 C 806.652344 -48.125 806.46875 -48 806.304688 -47.839844 C 806.144531 -47.675781 806.019531 -47.492188 805.933594 -47.28125 C 805.847656 -47.070312 805.800781 -46.851562 805.800781 -46.621094 C 805.800781 -46.394531 805.847656 -46.175781 805.933594 -45.964844 C 806.019531 -45.753906 806.144531 -45.566406 806.304688 -45.40625 C 806.46875 -45.242188 806.652344 -45.117188 806.863281 -45.03125 C 807.074219 -44.945312 807.296875 -44.902344 807.523438 -44.902344 C 807.753906 -44.902344 807.972656 -44.945312 808.183594 -45.03125 C 808.394531 -45.117188 808.578125 -45.242188 808.742188 -45.40625 C 808.902344 -45.566406 809.027344 -45.753906 809.113281 -45.964844 C 809.203125 -46.175781 809.246094 -46.394531 809.246094 -46.621094 C 809.246094 -46.851562 809.199219 -47.070312 809.113281 -47.28125 C 809.023438 -47.492188 808.898438 -47.679688 808.738281 -47.84375 C 808.574219 -48.003906 808.386719 -48.128906 808.175781 -48.214844 C 807.964844 -48.300781 807.742188 -48.34375 807.515625 -48.34375 Z M 825.722656 -48.34375 C 825.496094 -48.34375 825.273438 -48.300781 825.0625 -48.214844 C 824.851562 -48.125 824.664062 -48.003906 824.503906 -47.839844 C 824.34375 -47.679688 824.21875 -47.496094 824.128906 -47.285156 C 824.042969 -47.074219 823.996094 -46.851562 823.996094 -46.625 C 823.996094 -46.394531 824.039062 -46.175781 824.128906 -45.964844 C 824.214844 -45.753906 824.339844 -45.566406 824.5 -45.40625 C 824.660156 -45.246094 824.847656 -45.121094 825.058594 -45.03125 C 825.269531 -44.945312 825.488281 -44.902344 825.714844 -44.902344 C 825.945312 -44.898438 826.164062 -44.945312 826.375 -45.03125 C 826.585938 -45.117188 826.773438 -45.242188 826.933594 -45.402344 C 827.097656 -45.566406 827.222656 -45.75 827.308594 -45.960938 C 827.394531 -46.171875 827.441406 -46.394531 827.441406 -46.621094 C 827.441406 -46.851562 827.394531 -47.070312 827.308594 -47.28125 C 827.222656 -47.488281 827.097656 -47.675781 826.9375 -47.835938 C 826.777344 -48 826.589844 -48.125 826.378906 -48.210938 C 826.167969 -48.296875 825.949219 -48.34375 825.722656 -48.34375 Z M 843.929688 -48.34375 C 843.703125 -48.339844 843.484375 -48.296875 843.273438 -48.207031 C 843.0625 -48.117188 842.878906 -47.992188 842.71875 -47.832031 C 842.558594 -47.667969 842.4375 -47.480469 842.347656 -47.269531 C 842.261719 -47.058594 842.222656 -46.839844 842.222656 -46.613281 C 842.222656 -46.386719 842.269531 -46.167969 842.355469 -45.957031 C 842.445312 -45.746094 842.570312 -45.5625 842.730469 -45.398438 C 842.894531 -45.238281 843.078125 -45.117188 843.289062 -45.03125 C 843.5 -44.941406 843.71875 -44.898438 843.949219 -44.902344 C 844.175781 -44.902344 844.394531 -44.945312 844.605469 -45.03125 C 844.816406 -45.121094 845 -45.246094 845.164062 -45.40625 C 845.324219 -45.566406 845.445312 -45.753906 845.535156 -45.964844 C 845.621094 -46.175781 845.664062 -46.394531 845.664062 -46.621094 C 845.664062 -46.851562 845.621094 -47.070312 845.53125 -47.285156 C 845.445312 -47.496094 845.320312 -47.683594 845.15625 -47.84375 C 844.992188 -48.003906 844.804688 -48.128906 844.59375 -48.214844 C 844.378906 -48.300781 844.160156 -48.34375 843.929688 -48.34375 Z M 862.132812 -48.34375 C 861.90625 -48.34375 861.6875 -48.300781 861.476562 -48.210938 C 861.265625 -48.125 861.078125 -48 860.917969 -47.839844 C 860.753906 -47.675781 860.628906 -47.492188 860.542969 -47.28125 C 860.457031 -47.070312 860.414062 -46.851562 860.414062 -46.621094 C 860.414062 -46.394531 860.457031 -46.175781 860.542969 -45.964844 C 860.628906 -45.753906 860.753906 -45.566406 860.917969 -45.40625 C 861.078125 -45.242188 861.265625 -45.117188 861.476562 -45.03125 C 861.6875 -44.945312 861.90625 -44.902344 862.132812 -44.902344 C 862.363281 -44.902344 862.582031 -44.945312 862.792969 -45.03125 C 863.003906 -45.117188 863.191406 -45.242188 863.351562 -45.40625 C 863.511719 -45.566406 863.636719 -45.753906 863.722656 -45.964844 C 863.8125 -46.175781 863.855469 -46.394531 863.855469 -46.621094 C 863.855469 -46.851562 863.8125 -47.070312 863.722656 -47.28125 C 863.636719 -47.492188 863.511719 -47.675781 863.351562 -47.839844 C 863.191406 -48 863.003906 -48.125 862.792969 -48.210938 C 862.582031 -48.300781 862.363281 -48.34375 862.132812 -48.34375 Z M 880.339844 -48.34375 C 880.113281 -48.34375 879.894531 -48.300781 879.683594 -48.210938 C 879.472656 -48.125 879.285156 -48 879.125 -47.839844 C 878.964844 -47.675781 878.839844 -47.492188 878.75 -47.28125 C 878.664062 -47.070312 878.621094 -46.851562 878.621094 -46.621094 C 878.621094 -46.394531 878.664062 -46.175781 878.75 -45.964844 C 878.839844 -45.753906 878.964844 -45.566406 879.125 -45.40625 C 879.285156 -45.242188 879.472656 -45.117188 879.683594 -45.03125 C 879.894531 -44.945312 880.113281 -44.902344 880.339844 -44.902344 C 880.570312 -44.902344 880.789062 -44.945312 881 -45.03125 C 881.210938 -45.117188 881.398438 -45.242188 881.558594 -45.40625 C 881.71875 -45.566406 881.84375 -45.753906 881.933594 -45.964844 C 882.019531 -46.175781 882.0625 -46.394531 882.0625 -46.621094 C 882.0625 -46.851562 882.019531 -47.070312 881.933594 -47.28125 C 881.84375 -47.492188 881.71875 -47.675781 881.558594 -47.839844 C 881.398438 -48 881.210938 -48.125 881 -48.210938 C 880.789062 -48.300781 880.570312 -48.34375 880.339844 -48.34375 Z M 898.550781 -44.90625 C 898.777344 -44.90625 898.996094 -44.949219 899.207031 -45.035156 C 899.417969 -45.125 899.605469 -45.246094 899.765625 -45.410156 C 899.929688 -45.570312 900.050781 -45.757812 900.140625 -45.96875 C 900.226562 -46.179688 900.269531 -46.398438 900.269531 -46.628906 C 900.269531 -46.855469 900.226562 -47.074219 900.140625 -47.285156 C 900.050781 -47.496094 899.925781 -47.683594 899.765625 -47.84375 C 899.601562 -48.007812 899.417969 -48.128906 899.207031 -48.21875 C 898.996094 -48.304688 898.773438 -48.347656 898.546875 -48.347656 C 898.316406 -48.347656 898.097656 -48.304688 897.886719 -48.214844 C 897.675781 -48.128906 897.492188 -48.003906 897.328125 -47.839844 C 897.167969 -47.679688 897.042969 -47.492188 896.957031 -47.28125 C 896.871094 -47.070312 896.828125 -46.851562 896.828125 -46.621094 C 896.828125 -46.394531 896.871094 -46.175781 896.960938 -45.964844 C 897.046875 -45.753906 897.171875 -45.570312 897.332031 -45.40625 C 897.496094 -45.246094 897.679688 -45.121094 897.890625 -45.035156 C 898.101562 -44.949219 898.320312 -44.90625 898.550781 -44.90625 Z M 734.6875 -30.734375 C 734.460938 -30.734375 734.238281 -30.691406 734.027344 -30.605469 C 733.816406 -30.519531 733.632812 -30.394531 733.46875 -30.234375 C 733.308594 -30.070312 733.183594 -29.886719 733.09375 -29.675781 C 733.007812 -29.464844 732.964844 -29.242188 732.960938 -29.015625 C 732.960938 -28.789062 733.003906 -28.566406 733.09375 -28.355469 C 733.179688 -28.144531 733.304688 -27.957031 733.464844 -27.796875 C 733.625 -27.636719 733.8125 -27.511719 734.023438 -27.421875 C 734.234375 -27.335938 734.453125 -27.292969 734.683594 -27.292969 C 734.910156 -27.292969 735.128906 -27.335938 735.339844 -27.421875 C 735.554688 -27.507812 735.738281 -27.632812 735.902344 -27.796875 C 736.0625 -27.957031 736.1875 -28.144531 736.273438 -28.355469 C 736.363281 -28.566406 736.40625 -28.785156 736.40625 -29.011719 C 736.40625 -29.242188 736.363281 -29.460938 736.273438 -29.671875 C 736.1875 -29.882812 736.0625 -30.066406 735.902344 -30.226562 C 735.742188 -30.390625 735.554688 -30.515625 735.347656 -30.601562 C 735.136719 -30.6875 734.917969 -30.734375 734.6875 -30.734375 Z M 752.894531 -30.734375 C 752.667969 -30.734375 752.449219 -30.691406 752.238281 -30.605469 C 752.027344 -30.519531 751.839844 -30.394531 751.675781 -30.234375 C 751.515625 -30.070312 751.390625 -29.886719 751.304688 -29.675781 C 751.214844 -29.464844 751.171875 -29.242188 751.171875 -29.015625 C 751.171875 -28.789062 751.214844 -28.566406 751.300781 -28.355469 C 751.386719 -28.144531 751.511719 -27.957031 751.671875 -27.796875 C 751.835938 -27.636719 752.019531 -27.511719 752.230469 -27.421875 C 752.441406 -27.335938 752.660156 -27.292969 752.890625 -27.292969 C 753.117188 -27.292969 753.339844 -27.335938 753.550781 -27.421875 C 753.761719 -27.507812 753.945312 -27.632812 754.109375 -27.796875 C 754.269531 -27.957031 754.394531 -28.144531 754.480469 -28.355469 C 754.570312 -28.566406 754.613281 -28.785156 754.613281 -29.011719 C 754.613281 -29.242188 754.570312 -29.460938 754.480469 -29.671875 C 754.394531 -29.882812 754.269531 -30.066406 754.109375 -30.226562 C 753.949219 -30.390625 753.765625 -30.515625 753.554688 -30.601562 C 753.34375 -30.6875 753.125 -30.734375 752.894531 -30.734375 Z M 771.097656 -30.734375 C 770.871094 -30.734375 770.652344 -30.691406 770.441406 -30.601562 C 770.230469 -30.515625 770.042969 -30.390625 769.882812 -30.230469 C 769.722656 -30.070312 769.597656 -29.882812 769.507812 -29.671875 C 769.421875 -29.460938 769.378906 -29.242188 769.378906 -29.011719 C 769.378906 -28.785156 769.421875 -28.566406 769.507812 -28.355469 C 769.597656 -28.144531 769.722656 -27.957031 769.882812 -27.796875 C 770.042969 -27.632812 770.230469 -27.511719 770.441406 -27.421875 C 770.652344 -27.335938 770.871094 -27.292969 771.097656 -27.292969 C 771.328125 -27.292969 771.546875 -27.335938 771.757812 -27.421875 C 771.96875 -27.511719 772.15625 -27.632812 772.316406 -27.796875 C 772.476562 -27.957031 772.601562 -28.144531 772.691406 -28.355469 C 772.777344 -28.566406 772.820312 -28.785156 772.820312 -29.011719 C 772.820312 -29.242188 772.777344 -29.460938 772.691406 -29.671875 C 772.601562 -29.882812 772.476562 -30.070312 772.316406 -30.230469 C 772.15625 -30.390625 771.96875 -30.515625 771.757812 -30.601562 C 771.546875 -30.691406 771.328125 -30.734375 771.097656 -30.734375 Z M 789.316406 -30.734375 C 789.085938 -30.734375 788.867188 -30.691406 788.65625 -30.601562 C 788.445312 -30.515625 788.261719 -30.390625 788.097656 -30.230469 C 787.9375 -30.070312 787.8125 -29.882812 787.726562 -29.671875 C 787.636719 -29.460938 787.59375 -29.242188 787.59375 -29.011719 C 787.59375 -28.785156 787.636719 -28.566406 787.726562 -28.355469 C 787.8125 -28.144531 787.9375 -27.957031 788.097656 -27.796875 C 788.261719 -27.632812 788.445312 -27.511719 788.65625 -27.421875 C 788.867188 -27.335938 789.085938 -27.292969 789.316406 -27.292969 C 789.542969 -27.292969 789.765625 -27.335938 789.976562 -27.421875 C 790.1875 -27.511719 790.371094 -27.632812 790.53125 -27.796875 C 790.695312 -27.957031 790.820312 -28.144531 790.90625 -28.355469 C 790.992188 -28.566406 791.039062 -28.785156 791.039062 -29.011719 C 791.039062 -29.242188 790.992188 -29.460938 790.90625 -29.671875 C 790.820312 -29.882812 790.695312 -30.070312 790.53125 -30.230469 C 790.371094 -30.390625 790.1875 -30.515625 789.976562 -30.601562 C 789.765625 -30.691406 789.542969 -30.734375 789.316406 -30.734375 Z M 807.523438 -30.734375 C 807.296875 -30.734375 807.074219 -30.691406 806.863281 -30.601562 C 806.652344 -30.515625 806.46875 -30.390625 806.304688 -30.230469 C 806.144531 -30.070312 806.019531 -29.882812 805.933594 -29.671875 C 805.847656 -29.460938 805.800781 -29.242188 805.800781 -29.011719 C 805.800781 -28.785156 805.847656 -28.566406 805.933594 -28.355469 C 806.019531 -28.144531 806.144531 -27.957031 806.304688 -27.796875 C 806.46875 -27.632812 806.652344 -27.511719 806.863281 -27.421875 C 807.074219 -27.335938 807.296875 -27.292969 807.523438 -27.292969 C 807.753906 -27.292969 807.972656 -27.335938 808.183594 -27.421875 C 808.394531 -27.511719 808.578125 -27.632812 808.742188 -27.796875 C 808.902344 -27.957031 809.027344 -28.144531 809.113281 -28.355469 C 809.203125 -28.566406 809.246094 -28.785156 809.246094 -29.011719 C 809.246094 -29.242188 809.199219 -29.460938 809.113281 -29.671875 C 809.023438 -29.886719 808.898438 -30.070312 808.738281 -30.234375 C 808.574219 -30.394531 808.386719 -30.519531 808.175781 -30.605469 C 807.964844 -30.691406 807.742188 -30.734375 807.515625 -30.734375 Z M 825.730469 -30.734375 C 825.503906 -30.734375 825.285156 -30.691406 825.070312 -30.605469 C 824.859375 -30.519531 824.675781 -30.394531 824.511719 -30.234375 C 824.351562 -30.070312 824.226562 -29.886719 824.136719 -29.675781 C 824.050781 -29.464844 824.007812 -29.242188 824.003906 -29.015625 C 824.003906 -28.789062 824.046875 -28.566406 824.136719 -28.355469 C 824.222656 -28.144531 824.347656 -27.957031 824.507812 -27.796875 C 824.667969 -27.636719 824.855469 -27.511719 825.066406 -27.421875 C 825.277344 -27.335938 825.496094 -27.292969 825.726562 -27.292969 C 825.953125 -27.292969 826.171875 -27.335938 826.382812 -27.421875 C 826.597656 -27.507812 826.78125 -27.632812 826.945312 -27.796875 C 827.105469 -27.957031 827.230469 -28.144531 827.316406 -28.355469 C 827.40625 -28.566406 827.449219 -28.785156 827.449219 -29.011719 C 827.449219 -29.242188 827.40625 -29.460938 827.316406 -29.671875 C 827.230469 -29.882812 827.105469 -30.070312 826.941406 -30.230469 C 826.78125 -30.394531 826.59375 -30.515625 826.382812 -30.605469 C 826.171875 -30.691406 825.953125 -30.734375 825.722656 -30.734375 Z M 843.9375 -30.734375 C 843.710938 -30.734375 843.492188 -30.691406 843.28125 -30.605469 C 843.070312 -30.519531 842.882812 -30.394531 842.71875 -30.234375 C 842.558594 -30.070312 842.433594 -29.886719 842.347656 -29.675781 C 842.257812 -29.464844 842.214844 -29.242188 842.214844 -29.015625 C 842.214844 -28.789062 842.257812 -28.566406 842.34375 -28.355469 C 842.429688 -28.144531 842.554688 -27.957031 842.714844 -27.796875 C 842.878906 -27.636719 843.0625 -27.511719 843.273438 -27.421875 C 843.484375 -27.335938 843.703125 -27.292969 843.933594 -27.292969 C 844.160156 -27.292969 844.382812 -27.335938 844.59375 -27.421875 C 844.804688 -27.507812 844.988281 -27.632812 845.152344 -27.796875 C 845.3125 -27.957031 845.4375 -28.144531 845.523438 -28.355469 C 845.613281 -28.566406 845.65625 -28.785156 845.65625 -29.011719 C 845.65625 -29.242188 845.613281 -29.460938 845.523438 -29.671875 C 845.4375 -29.882812 845.3125 -30.070312 845.148438 -30.230469 C 844.988281 -30.394531 844.800781 -30.515625 844.589844 -30.605469 C 844.378906 -30.691406 844.160156 -30.734375 843.929688 -30.734375 Z M 862.140625 -30.734375 C 861.914062 -30.734375 861.695312 -30.691406 861.484375 -30.601562 C 861.273438 -30.515625 861.085938 -30.390625 860.925781 -30.230469 C 860.765625 -30.070312 860.640625 -29.882812 860.550781 -29.671875 C 860.464844 -29.460938 860.421875 -29.242188 860.421875 -29.011719 C 860.421875 -28.785156 860.464844 -28.566406 860.550781 -28.355469 C 860.640625 -28.144531 860.765625 -27.957031 860.925781 -27.796875 C 861.085938 -27.632812 861.273438 -27.511719 861.484375 -27.421875 C 861.695312 -27.335938 861.914062 -27.292969 862.140625 -27.292969 C 862.371094 -27.292969 862.589844 -27.335938 862.800781 -27.421875 C 863.011719 -27.511719 863.199219 -27.632812 863.359375 -27.796875 C 863.519531 -27.957031 863.644531 -28.144531 863.734375 -28.355469 C 863.820312 -28.566406 863.863281 -28.785156 863.863281 -29.011719 C 863.863281 -29.242188 863.820312 -29.460938 863.730469 -29.671875 C 863.644531 -29.886719 863.519531 -30.070312 863.355469 -30.234375 C 863.195312 -30.394531 863.007812 -30.519531 862.796875 -30.605469 C 862.582031 -30.691406 862.363281 -30.734375 862.132812 -30.734375 Z M 880.351562 -30.734375 C 880.121094 -30.734375 879.902344 -30.691406 879.691406 -30.601562 C 879.480469 -30.515625 879.292969 -30.390625 879.132812 -30.230469 C 878.972656 -30.070312 878.847656 -29.882812 878.761719 -29.671875 C 878.671875 -29.460938 878.628906 -29.242188 878.628906 -29.011719 C 878.628906 -28.785156 878.671875 -28.566406 878.761719 -28.355469 C 878.847656 -28.144531 878.972656 -27.957031 879.132812 -27.796875 C 879.292969 -27.632812 879.480469 -27.511719 879.691406 -27.421875 C 879.902344 -27.335938 880.121094 -27.292969 880.351562 -27.292969 C 880.578125 -27.292969 880.796875 -27.335938 881.007812 -27.421875 C 881.21875 -27.511719 881.40625 -27.632812 881.566406 -27.796875 C 881.730469 -27.957031 881.851562 -28.144531 881.941406 -28.355469 C 882.027344 -28.566406 882.070312 -28.785156 882.070312 -29.011719 C 882.070312 -29.242188 882.027344 -29.460938 881.941406 -29.671875 C 881.851562 -29.886719 881.726562 -30.070312 881.5625 -30.234375 C 881.402344 -30.394531 881.214844 -30.519531 881.003906 -30.605469 C 880.789062 -30.691406 880.570312 -30.734375 880.339844 -30.734375 Z M 898.558594 -30.734375 C 898.328125 -30.738281 898.109375 -30.695312 897.894531 -30.613281 C 897.683594 -30.527344 897.496094 -30.40625 897.332031 -30.246094 C 897.167969 -30.085938 897.039062 -29.902344 896.949219 -29.691406 C 896.859375 -29.480469 896.8125 -29.261719 896.808594 -29.035156 C 896.808594 -28.804688 896.847656 -28.585938 896.933594 -28.371094 C 897.019531 -28.160156 897.140625 -27.972656 897.300781 -27.808594 C 897.460938 -27.644531 897.648438 -27.519531 897.859375 -27.429688 C 898.070312 -27.339844 898.289062 -27.292969 898.515625 -27.292969 C 898.746094 -27.289062 898.964844 -27.332031 899.179688 -27.417969 C 899.390625 -27.503906 899.578125 -27.625 899.742188 -27.789062 C 899.902344 -27.949219 900.027344 -28.132812 900.117188 -28.34375 C 900.207031 -28.554688 900.25 -28.773438 900.253906 -29.003906 C 900.253906 -29.230469 900.210938 -29.449219 900.125 -29.660156 C 900.039062 -29.871094 899.917969 -30.058594 899.757812 -30.21875 C 899.597656 -30.382812 899.414062 -30.507812 899.203125 -30.597656 C 898.996094 -30.6875 898.777344 -30.730469 898.550781 -30.734375 Z M 734.6875 -13.101562 C 734.460938 -13.105469 734.242188 -13.0625 734.03125 -12.972656 C 733.820312 -12.886719 733.632812 -12.765625 733.472656 -12.601562 C 733.308594 -12.441406 733.183594 -12.257812 733.097656 -12.046875 C 733.007812 -11.835938 732.964844 -11.617188 732.960938 -11.390625 C 732.960938 -11.164062 733.003906 -10.941406 733.089844 -10.730469 C 733.175781 -10.519531 733.300781 -10.335938 733.460938 -10.171875 C 733.621094 -10.011719 733.804688 -9.886719 734.015625 -9.796875 C 734.222656 -9.707031 734.441406 -9.664062 734.671875 -9.660156 C 734.898438 -9.660156 735.117188 -9.699219 735.328125 -9.785156 C 735.539062 -9.871094 735.726562 -9.992188 735.890625 -10.152344 C 736.054688 -10.3125 736.179688 -10.5 736.269531 -10.707031 C 736.355469 -10.917969 736.402344 -11.136719 736.40625 -11.363281 C 736.40625 -11.59375 736.367188 -11.816406 736.28125 -12.027344 C 736.195312 -12.238281 736.070312 -12.429688 735.910156 -12.589844 C 735.746094 -12.753906 735.5625 -12.878906 735.351562 -12.96875 C 735.136719 -13.058594 734.917969 -13.101562 734.6875 -13.101562 Z M 752.894531 -13.101562 C 752.667969 -13.105469 752.449219 -13.058594 752.238281 -12.972656 C 752.023438 -12.886719 751.839844 -12.761719 751.675781 -12.601562 C 751.515625 -12.441406 751.390625 -12.253906 751.300781 -12.042969 C 751.214844 -11.832031 751.171875 -11.613281 751.171875 -11.382812 C 751.171875 -11.15625 751.214844 -10.933594 751.300781 -10.722656 C 751.386719 -10.511719 751.511719 -10.328125 751.675781 -10.164062 C 751.835938 -10.003906 752.023438 -9.878906 752.234375 -9.792969 C 752.445312 -9.703125 752.664062 -9.660156 752.894531 -9.660156 C 753.121094 -9.660156 753.339844 -9.703125 753.550781 -9.792969 C 753.761719 -9.878906 753.949219 -10.003906 754.109375 -10.167969 C 754.273438 -10.328125 754.394531 -10.515625 754.484375 -10.726562 C 754.570312 -10.9375 754.613281 -11.15625 754.613281 -11.386719 C 754.613281 -11.613281 754.570312 -11.832031 754.480469 -12.042969 C 754.394531 -12.253906 754.269531 -12.4375 754.109375 -12.597656 C 753.949219 -12.757812 753.761719 -12.882812 753.550781 -12.972656 C 753.34375 -13.058594 753.125 -13.101562 752.894531 -13.101562 Z M 771.097656 -13.101562 C 770.871094 -13.101562 770.652344 -13.058594 770.441406 -12.972656 C 770.230469 -12.886719 770.046875 -12.761719 769.882812 -12.601562 C 769.722656 -12.441406 769.597656 -12.253906 769.511719 -12.042969 C 769.421875 -11.835938 769.378906 -11.617188 769.378906 -11.386719 C 769.378906 -11.160156 769.421875 -10.941406 769.507812 -10.730469 C 769.59375 -10.519531 769.714844 -10.332031 769.875 -10.171875 C 770.035156 -10.007812 770.222656 -9.882812 770.429688 -9.796875 C 770.640625 -9.707031 770.859375 -9.660156 771.085938 -9.660156 C 771.316406 -9.660156 771.535156 -9.699219 771.746094 -9.785156 C 771.957031 -9.871094 772.144531 -9.996094 772.304688 -10.152344 C 772.46875 -10.3125 772.59375 -10.5 772.683594 -10.707031 C 772.773438 -10.917969 772.820312 -11.136719 772.820312 -11.363281 C 772.824219 -11.59375 772.78125 -11.816406 772.695312 -12.027344 C 772.609375 -12.242188 772.484375 -12.429688 772.324219 -12.59375 C 772.160156 -12.757812 771.972656 -12.882812 771.761719 -12.96875 C 771.550781 -13.058594 771.328125 -13.101562 771.097656 -13.101562 Z M 789.308594 -13.101562 C 789.078125 -13.101562 788.859375 -13.058594 788.648438 -12.972656 C 788.4375 -12.882812 788.25 -12.761719 788.089844 -12.597656 C 787.929688 -12.4375 787.804688 -12.25 787.714844 -12.039062 C 787.628906 -11.828125 787.585938 -11.609375 787.585938 -11.378906 C 787.585938 -11.152344 787.628906 -10.933594 787.71875 -10.722656 C 787.804688 -10.511719 787.929688 -10.324219 788.089844 -10.164062 C 788.253906 -10 788.441406 -9.878906 788.652344 -9.789062 C 788.863281 -9.703125 789.082031 -9.660156 789.308594 -9.660156 C 789.539062 -9.660156 789.757812 -9.703125 789.96875 -9.792969 C 790.179688 -9.878906 790.367188 -10.003906 790.527344 -10.167969 C 790.6875 -10.328125 790.8125 -10.515625 790.898438 -10.726562 C 790.984375 -10.9375 791.027344 -11.15625 791.027344 -11.386719 C 791.027344 -11.613281 790.984375 -11.832031 790.898438 -12.042969 C 790.808594 -12.25 790.6875 -12.4375 790.527344 -12.597656 C 790.367188 -12.757812 790.179688 -12.882812 789.972656 -12.96875 C 789.761719 -13.058594 789.542969 -13.101562 789.316406 -13.101562 Z M 807.515625 -13.101562 C 807.285156 -13.101562 807.066406 -13.058594 806.855469 -12.972656 C 806.644531 -12.882812 806.457031 -12.761719 806.296875 -12.597656 C 806.136719 -12.4375 806.011719 -12.25 805.925781 -12.039062 C 805.835938 -11.828125 805.792969 -11.609375 805.792969 -11.378906 C 805.792969 -11.152344 805.835938 -10.933594 805.925781 -10.722656 C 806.011719 -10.511719 806.136719 -10.324219 806.300781 -10.164062 C 806.460938 -10 806.648438 -9.878906 806.859375 -9.789062 C 807.070312 -9.703125 807.289062 -9.660156 807.519531 -9.660156 C 807.746094 -9.660156 807.964844 -9.703125 808.175781 -9.792969 C 808.386719 -9.878906 808.574219 -10.003906 808.734375 -10.167969 C 808.894531 -10.328125 809.019531 -10.515625 809.105469 -10.726562 C 809.195312 -10.9375 809.238281 -11.15625 809.234375 -11.386719 C 809.234375 -11.613281 809.191406 -11.832031 809.105469 -12.042969 C 809.015625 -12.253906 808.890625 -12.441406 808.730469 -12.601562 C 808.570312 -12.761719 808.382812 -12.886719 808.171875 -12.972656 C 807.960938 -13.058594 807.742188 -13.101562 807.515625 -13.101562 Z M 825.722656 -13.101562 C 825.496094 -13.105469 825.273438 -13.058594 825.0625 -12.972656 C 824.851562 -12.886719 824.664062 -12.761719 824.503906 -12.601562 C 824.339844 -12.441406 824.214844 -12.253906 824.128906 -12.042969 C 824.042969 -11.832031 823.996094 -11.613281 823.996094 -11.382812 C 823.996094 -11.15625 824.039062 -10.933594 824.128906 -10.722656 C 824.214844 -10.511719 824.339844 -10.328125 824.5 -10.164062 C 824.664062 -10.003906 824.847656 -9.878906 825.058594 -9.792969 C 825.269531 -9.703125 825.492188 -9.660156 825.71875 -9.660156 C 825.949219 -9.660156 826.167969 -9.703125 826.378906 -9.792969 C 826.589844 -9.878906 826.777344 -10.003906 826.9375 -10.167969 C 827.097656 -10.328125 827.222656 -10.515625 827.308594 -10.726562 C 827.398438 -10.9375 827.441406 -11.15625 827.441406 -11.386719 C 827.4375 -11.613281 827.394531 -11.832031 827.308594 -12.042969 C 827.21875 -12.253906 827.097656 -12.4375 826.933594 -12.597656 C 826.773438 -12.757812 826.589844 -12.882812 826.378906 -12.972656 C 826.167969 -13.058594 825.949219 -13.101562 825.722656 -13.101562 Z M 843.929688 -13.101562 C 843.703125 -13.101562 843.484375 -13.054688 843.273438 -12.96875 C 843.066406 -12.878906 842.878906 -12.753906 842.722656 -12.59375 C 842.5625 -12.429688 842.4375 -12.246094 842.351562 -12.035156 C 842.265625 -11.824219 842.222656 -11.605469 842.222656 -11.378906 C 842.222656 -11.152344 842.265625 -10.933594 842.355469 -10.722656 C 842.441406 -10.511719 842.566406 -10.328125 842.726562 -10.167969 C 842.886719 -10.003906 843.070312 -9.882812 843.28125 -9.792969 C 843.492188 -9.707031 843.710938 -9.660156 843.9375 -9.660156 C 844.164062 -9.660156 844.382812 -9.703125 844.59375 -9.789062 C 844.804688 -9.875 844.988281 -9.996094 845.152344 -10.15625 C 845.3125 -10.316406 845.4375 -10.5 845.527344 -10.710938 C 845.617188 -10.917969 845.664062 -11.136719 845.664062 -11.363281 C 845.667969 -11.59375 845.625 -11.816406 845.539062 -12.03125 C 845.449219 -12.246094 845.324219 -12.433594 845.164062 -12.597656 C 845 -12.761719 844.8125 -12.886719 844.597656 -12.972656 C 844.382812 -13.0625 844.160156 -13.105469 843.929688 -13.101562 Z M 862.132812 -13.101562 C 861.90625 -13.101562 861.6875 -13.058594 861.476562 -12.972656 C 861.265625 -12.882812 861.078125 -12.761719 860.917969 -12.597656 C 860.753906 -12.4375 860.628906 -12.25 860.542969 -12.039062 C 860.457031 -11.828125 860.414062 -11.609375 860.414062 -11.378906 C 860.414062 -11.152344 860.457031 -10.933594 860.542969 -10.722656 C 860.632812 -10.511719 860.757812 -10.324219 860.917969 -10.164062 C 861.078125 -10 861.265625 -9.878906 861.476562 -9.789062 C 861.6875 -9.703125 861.910156 -9.660156 862.136719 -9.660156 C 862.363281 -9.660156 862.585938 -9.703125 862.796875 -9.792969 C 863.007812 -9.878906 863.191406 -10.003906 863.351562 -10.167969 C 863.515625 -10.328125 863.636719 -10.515625 863.726562 -10.726562 C 863.8125 -10.9375 863.855469 -11.15625 863.855469 -11.386719 C 863.855469 -11.613281 863.808594 -11.832031 863.722656 -12.042969 C 863.636719 -12.253906 863.511719 -12.441406 863.347656 -12.601562 C 863.1875 -12.761719 863.003906 -12.886719 862.792969 -12.972656 C 862.582031 -13.058594 862.363281 -13.101562 862.132812 -13.101562 Z M 880.339844 -13.101562 C 880.113281 -13.101562 879.894531 -13.058594 879.683594 -12.972656 C 879.472656 -12.882812 879.285156 -12.761719 879.125 -12.597656 C 878.960938 -12.4375 878.839844 -12.25 878.75 -12.039062 C 878.664062 -11.828125 878.621094 -11.609375 878.621094 -11.378906 C 878.621094 -11.152344 878.664062 -10.933594 878.75 -10.722656 C 878.839844 -10.511719 878.964844 -10.324219 879.125 -10.164062 C 879.289062 -10 879.472656 -9.878906 879.683594 -9.789062 C 879.894531 -9.703125 880.117188 -9.660156 880.34375 -9.660156 C 880.574219 -9.660156 880.792969 -9.703125 881.003906 -9.792969 C 881.214844 -9.878906 881.398438 -10.003906 881.5625 -10.167969 C 881.722656 -10.328125 881.847656 -10.515625 881.933594 -10.726562 C 882.019531 -10.9375 882.0625 -11.15625 882.0625 -11.386719 C 882.0625 -11.613281 882.019531 -11.832031 881.929688 -12.042969 C 881.84375 -12.253906 881.71875 -12.441406 881.558594 -12.601562 C 881.394531 -12.761719 881.210938 -12.886719 881 -12.972656 C 880.789062 -13.058594 880.570312 -13.101562 880.339844 -13.101562 Z M 898.550781 -13.101562 C 898.320312 -13.105469 898.101562 -13.0625 897.890625 -12.980469 C 897.675781 -12.894531 897.488281 -12.769531 897.328125 -12.609375 C 897.164062 -12.453125 897.039062 -12.265625 896.949219 -12.058594 C 896.859375 -11.847656 896.8125 -11.628906 896.808594 -11.398438 C 896.808594 -11.171875 896.847656 -10.949219 896.933594 -10.738281 C 897.019531 -10.527344 897.140625 -10.339844 897.300781 -10.175781 C 897.460938 -10.015625 897.648438 -9.886719 897.855469 -9.796875 C 898.066406 -9.707031 898.285156 -9.664062 898.515625 -9.660156 C 898.742188 -9.660156 898.960938 -9.699219 899.175781 -9.785156 C 899.386719 -9.871094 899.574219 -9.992188 899.734375 -10.152344 C 899.898438 -10.3125 900.027344 -10.496094 900.113281 -10.707031 C 900.203125 -10.917969 900.25 -11.136719 900.253906 -11.363281 C 900.253906 -11.59375 900.214844 -11.8125 900.128906 -12.023438 C 900.042969 -12.234375 899.921875 -12.421875 899.761719 -12.585938 C 899.601562 -12.75 899.417969 -12.875 899.207031 -12.964844 C 898.996094 -13.054688 898.777344 -13.101562 898.550781 -13.101562 Z M 734.6875 4.507812 C 734.460938 4.503906 734.242188 4.546875 734.03125 4.636719 C 733.820312 4.722656 733.632812 4.84375 733.472656 5.003906 C 733.308594 5.167969 733.183594 5.351562 733.097656 5.5625 C 733.007812 5.773438 732.964844 5.992188 732.960938 6.21875 C 732.960938 6.445312 733.003906 6.664062 733.089844 6.875 C 733.175781 7.089844 733.300781 7.273438 733.460938 7.4375 C 733.621094 7.597656 733.804688 7.722656 734.015625 7.8125 C 734.222656 7.902344 734.441406 7.945312 734.671875 7.949219 C 734.898438 7.949219 735.117188 7.910156 735.328125 7.824219 C 735.539062 7.738281 735.726562 7.613281 735.890625 7.457031 C 736.054688 7.296875 736.179688 7.109375 736.269531 6.902344 C 736.355469 6.691406 736.402344 6.472656 736.40625 6.246094 C 736.40625 6.015625 736.363281 5.796875 736.277344 5.585938 C 736.191406 5.371094 736.066406 5.1875 735.90625 5.023438 C 735.746094 4.863281 735.558594 4.734375 735.347656 4.648438 C 735.136719 4.558594 734.917969 4.515625 734.6875 4.515625 Z M 752.894531 4.507812 C 752.667969 4.503906 752.449219 4.546875 752.238281 4.636719 C 752.027344 4.722656 751.839844 4.847656 751.675781 5.007812 C 751.515625 5.167969 751.390625 5.355469 751.304688 5.566406 C 751.214844 5.777344 751.171875 5.996094 751.171875 6.222656 C 751.171875 6.453125 751.214844 6.671875 751.300781 6.882812 C 751.386719 7.09375 751.511719 7.28125 751.671875 7.441406 C 751.835938 7.605469 752.019531 7.730469 752.230469 7.816406 C 752.441406 7.90625 752.660156 7.949219 752.890625 7.949219 C 753.117188 7.949219 753.339844 7.90625 753.550781 7.816406 C 753.761719 7.730469 753.945312 7.605469 754.109375 7.445312 C 754.269531 7.285156 754.394531 7.097656 754.480469 6.886719 C 754.570312 6.675781 754.613281 6.457031 754.613281 6.226562 C 754.613281 6 754.566406 5.78125 754.480469 5.574219 C 754.390625 5.363281 754.269531 5.179688 754.105469 5.015625 C 753.945312 4.855469 753.761719 4.734375 753.550781 4.644531 C 753.339844 4.558594 753.125 4.515625 752.894531 4.515625 Z M 771.097656 4.507812 C 770.871094 4.507812 770.652344 4.550781 770.441406 4.636719 C 770.230469 4.722656 770.046875 4.847656 769.882812 5.007812 C 769.722656 5.167969 769.597656 5.355469 769.511719 5.566406 C 769.421875 5.773438 769.378906 5.992188 769.378906 6.222656 C 769.378906 6.449219 769.421875 6.667969 769.507812 6.878906 C 769.59375 7.089844 769.714844 7.277344 769.875 7.4375 C 770.035156 7.601562 770.222656 7.726562 770.429688 7.8125 C 770.640625 7.902344 770.859375 7.945312 771.085938 7.949219 C 771.316406 7.949219 771.535156 7.90625 771.746094 7.824219 C 771.957031 7.738281 772.144531 7.613281 772.304688 7.453125 C 772.46875 7.296875 772.59375 7.109375 772.683594 6.902344 C 772.773438 6.691406 772.820312 6.472656 772.820312 6.246094 C 772.820312 6.015625 772.777344 5.796875 772.691406 5.582031 C 772.605469 5.371094 772.480469 5.183594 772.320312 5.023438 C 772.15625 4.859375 771.972656 4.734375 771.761719 4.648438 C 771.546875 4.558594 771.328125 4.515625 771.097656 4.515625 Z M 789.308594 4.507812 C 789.078125 4.507812 788.859375 4.550781 788.648438 4.636719 C 788.4375 4.722656 788.25 4.847656 788.089844 5.011719 C 787.929688 5.171875 787.804688 5.359375 787.71875 5.570312 C 787.628906 5.78125 787.585938 6 787.585938 6.226562 C 787.585938 6.457031 787.628906 6.675781 787.71875 6.886719 C 787.804688 7.097656 787.929688 7.28125 788.089844 7.445312 C 788.25 7.605469 788.4375 7.730469 788.648438 7.816406 C 788.859375 7.90625 789.078125 7.949219 789.308594 7.949219 C 789.535156 7.949219 789.753906 7.90625 789.964844 7.816406 C 790.175781 7.730469 790.363281 7.605469 790.523438 7.445312 C 790.6875 7.28125 790.808594 7.097656 790.898438 6.886719 C 790.984375 6.675781 791.027344 6.457031 791.027344 6.226562 C 791.027344 6 790.984375 5.78125 790.894531 5.574219 C 790.808594 5.363281 790.683594 5.179688 790.523438 5.019531 C 790.363281 4.859375 790.179688 4.734375 789.96875 4.648438 C 789.761719 4.558594 789.542969 4.515625 789.316406 4.515625 Z M 807.515625 4.507812 C 807.285156 4.507812 807.066406 4.550781 806.855469 4.636719 C 806.644531 4.722656 806.460938 4.847656 806.296875 5.011719 C 806.136719 5.171875 806.011719 5.359375 805.925781 5.570312 C 805.835938 5.78125 805.792969 6 805.792969 6.226562 C 805.792969 6.457031 805.835938 6.675781 805.925781 6.886719 C 806.011719 7.097656 806.136719 7.28125 806.296875 7.445312 C 806.460938 7.605469 806.644531 7.730469 806.855469 7.816406 C 807.066406 7.90625 807.285156 7.949219 807.515625 7.949219 C 807.742188 7.949219 807.960938 7.90625 808.171875 7.816406 C 808.382812 7.730469 808.570312 7.605469 808.730469 7.445312 C 808.894531 7.28125 809.019531 7.097656 809.105469 6.886719 C 809.191406 6.675781 809.234375 6.457031 809.234375 6.226562 C 809.234375 6 809.191406 5.78125 809.101562 5.570312 C 809.015625 5.363281 808.890625 5.175781 808.730469 5.015625 C 808.566406 4.855469 808.382812 4.730469 808.171875 4.644531 C 807.960938 4.558594 807.742188 4.515625 807.515625 4.515625 Z M 825.722656 4.507812 C 825.496094 4.503906 825.273438 4.546875 825.0625 4.636719 C 824.851562 4.722656 824.664062 4.847656 824.503906 5.007812 C 824.34375 5.167969 824.21875 5.355469 824.128906 5.566406 C 824.042969 5.777344 823.996094 5.996094 823.996094 6.222656 C 823.996094 6.453125 824.039062 6.671875 824.128906 6.882812 C 824.214844 7.09375 824.339844 7.28125 824.5 7.441406 C 824.660156 7.605469 824.847656 7.730469 825.058594 7.816406 C 825.269531 7.90625 825.488281 7.949219 825.714844 7.949219 C 825.945312 7.949219 826.164062 7.90625 826.375 7.816406 C 826.585938 7.730469 826.773438 7.605469 826.933594 7.445312 C 827.097656 7.285156 827.222656 7.097656 827.308594 6.886719 C 827.394531 6.675781 827.441406 6.457031 827.441406 6.226562 C 827.4375 6 827.394531 5.78125 827.304688 5.574219 C 827.21875 5.363281 827.09375 5.179688 826.933594 5.015625 C 826.773438 4.855469 826.585938 4.734375 826.378906 4.644531 C 826.167969 4.558594 825.949219 4.515625 825.722656 4.515625 Z M 843.929688 4.507812 C 843.703125 4.507812 843.484375 4.554688 843.273438 4.640625 C 843.066406 4.730469 842.878906 4.855469 842.722656 5.015625 C 842.5625 5.175781 842.4375 5.363281 842.351562 5.574219 C 842.265625 5.785156 842.222656 6.003906 842.222656 6.230469 C 842.222656 6.457031 842.265625 6.675781 842.355469 6.886719 C 842.441406 7.097656 842.566406 7.28125 842.726562 7.441406 C 842.886719 7.605469 843.070312 7.726562 843.28125 7.816406 C 843.492188 7.902344 843.710938 7.949219 843.9375 7.949219 C 844.164062 7.949219 844.382812 7.90625 844.59375 7.820312 C 844.804688 7.734375 844.988281 7.613281 845.152344 7.453125 C 845.3125 7.292969 845.4375 7.109375 845.527344 6.898438 C 845.617188 6.691406 845.664062 6.472656 845.664062 6.246094 C 845.667969 6.015625 845.621094 5.792969 845.535156 5.582031 C 845.449219 5.367188 845.320312 5.179688 845.160156 5.015625 C 844.996094 4.855469 844.808594 4.730469 844.59375 4.644531 C 844.382812 4.554688 844.160156 4.511719 843.929688 4.515625 Z M 862.132812 4.507812 C 861.90625 4.507812 861.6875 4.550781 861.476562 4.636719 C 861.265625 4.722656 861.078125 4.847656 860.917969 5.011719 C 860.753906 5.171875 860.628906 5.359375 860.542969 5.570312 C 860.457031 5.78125 860.414062 6 860.414062 6.226562 C 860.414062 6.457031 860.457031 6.675781 860.542969 6.886719 C 860.628906 7.097656 860.753906 7.28125 860.917969 7.445312 C 861.078125 7.605469 861.265625 7.730469 861.476562 7.816406 C 861.6875 7.90625 861.90625 7.949219 862.132812 7.949219 C 862.363281 7.949219 862.582031 7.90625 862.792969 7.816406 C 863.003906 7.730469 863.191406 7.605469 863.351562 7.445312 C 863.511719 7.28125 863.636719 7.097656 863.722656 6.886719 C 863.8125 6.675781 863.855469 6.457031 863.855469 6.226562 C 863.855469 6 863.808594 5.78125 863.722656 5.570312 C 863.632812 5.363281 863.507812 5.175781 863.347656 5.015625 C 863.1875 4.855469 863 4.730469 862.789062 4.644531 C 862.582031 4.558594 862.359375 4.515625 862.132812 4.515625 Z M 880.339844 4.507812 C 880.113281 4.507812 879.894531 4.550781 879.683594 4.636719 C 879.472656 4.722656 879.285156 4.847656 879.125 5.011719 C 878.964844 5.171875 878.839844 5.359375 878.75 5.570312 C 878.664062 5.78125 878.621094 6 878.621094 6.226562 C 878.621094 6.457031 878.664062 6.675781 878.75 6.886719 C 878.839844 7.097656 878.964844 7.28125 879.125 7.445312 C 879.285156 7.605469 879.472656 7.730469 879.683594 7.816406 C 879.894531 7.90625 880.113281 7.949219 880.339844 7.949219 C 880.570312 7.949219 880.789062 7.90625 881 7.816406 C 881.210938 7.730469 881.398438 7.605469 881.558594 7.445312 C 881.71875 7.28125 881.84375 7.097656 881.933594 6.886719 C 882.019531 6.675781 882.0625 6.457031 882.0625 6.226562 C 882.0625 6 882.015625 5.78125 881.929688 5.570312 C 881.839844 5.363281 881.714844 5.175781 881.554688 5.015625 C 881.394531 4.855469 881.207031 4.730469 881 4.644531 C 880.789062 4.558594 880.570312 4.515625 880.339844 4.515625 Z M 898.550781 4.507812 C 898.320312 4.503906 898.101562 4.546875 897.890625 4.628906 C 897.675781 4.714844 897.488281 4.839844 897.328125 4.996094 C 897.164062 5.15625 897.039062 5.34375 896.949219 5.550781 C 896.859375 5.761719 896.8125 5.980469 896.808594 6.210938 C 896.808594 6.4375 896.847656 6.65625 896.933594 6.871094 C 897.019531 7.082031 897.140625 7.269531 897.300781 7.433594 C 897.460938 7.59375 897.648438 7.722656 897.855469 7.8125 C 898.066406 7.898438 898.285156 7.945312 898.515625 7.949219 C 898.742188 7.949219 898.960938 7.910156 899.175781 7.824219 C 899.386719 7.738281 899.574219 7.617188 899.734375 7.457031 C 899.898438 7.296875 900.027344 7.113281 900.113281 6.902344 C 900.203125 6.691406 900.25 6.472656 900.253906 6.246094 C 900.253906 6.015625 900.210938 5.796875 900.125 5.585938 C 900.039062 5.375 899.917969 5.191406 899.757812 5.027344 C 899.597656 4.867188 899.414062 4.742188 899.203125 4.652344 C 898.996094 4.5625 898.777344 4.515625 898.550781 4.515625 Z M 734.6875 22.136719 C 734.460938 22.136719 734.238281 22.179688 734.027344 22.265625 C 733.816406 22.355469 733.628906 22.476562 733.46875 22.640625 C 733.308594 22.800781 733.183594 22.988281 733.09375 23.199219 C 733.007812 23.410156 732.964844 23.628906 732.960938 23.855469 C 732.960938 24.085938 733.007812 24.304688 733.09375 24.515625 C 733.179688 24.726562 733.304688 24.914062 733.46875 25.074219 C 733.628906 25.238281 733.816406 25.363281 734.027344 25.449219 C 734.238281 25.535156 734.457031 25.578125 734.683594 25.578125 C 734.914062 25.578125 735.132812 25.535156 735.34375 25.449219 C 735.554688 25.359375 735.742188 25.234375 735.902344 25.074219 C 736.066406 24.910156 736.1875 24.726562 736.277344 24.511719 C 736.363281 24.300781 736.40625 24.082031 736.40625 23.855469 C 736.40625 23.625 736.359375 23.40625 736.273438 23.199219 C 736.1875 22.988281 736.0625 22.800781 735.902344 22.640625 C 735.742188 22.480469 735.554688 22.355469 735.34375 22.269531 C 735.132812 22.179688 734.914062 22.136719 734.6875 22.136719 Z M 752.894531 22.136719 C 752.667969 22.136719 752.449219 22.179688 752.238281 22.265625 C 752.023438 22.355469 751.839844 22.476562 751.675781 22.640625 C 751.515625 22.800781 751.390625 22.988281 751.300781 23.199219 C 751.214844 23.410156 751.171875 23.628906 751.171875 23.855469 C 751.171875 24.085938 751.214844 24.304688 751.300781 24.515625 C 751.386719 24.726562 751.511719 24.914062 751.675781 25.074219 C 751.835938 25.238281 752.023438 25.363281 752.234375 25.449219 C 752.445312 25.535156 752.664062 25.578125 752.894531 25.578125 C 753.121094 25.578125 753.339844 25.535156 753.550781 25.449219 C 753.761719 25.359375 753.949219 25.234375 754.109375 25.074219 C 754.273438 24.910156 754.394531 24.726562 754.484375 24.511719 C 754.570312 24.300781 754.613281 24.082031 754.613281 23.855469 C 754.613281 23.625 754.570312 23.40625 754.480469 23.199219 C 754.394531 22.988281 754.269531 22.800781 754.109375 22.640625 C 753.949219 22.480469 753.761719 22.355469 753.550781 22.269531 C 753.34375 22.179688 753.125 22.136719 752.894531 22.136719 Z M 771.097656 22.136719 C 770.871094 22.136719 770.652344 22.179688 770.441406 22.269531 C 770.230469 22.355469 770.042969 22.480469 769.882812 22.640625 C 769.71875 22.804688 769.597656 22.988281 769.507812 23.199219 C 769.421875 23.410156 769.378906 23.632812 769.378906 23.859375 C 769.378906 24.089844 769.421875 24.308594 769.511719 24.519531 C 769.597656 24.730469 769.722656 24.914062 769.882812 25.078125 C 770.046875 25.238281 770.230469 25.363281 770.441406 25.449219 C 770.652344 25.535156 770.875 25.578125 771.101562 25.578125 C 771.332031 25.578125 771.550781 25.535156 771.761719 25.449219 C 771.972656 25.359375 772.15625 25.234375 772.320312 25.074219 C 772.480469 24.910156 772.605469 24.722656 772.691406 24.511719 C 772.777344 24.300781 772.820312 24.082031 772.820312 23.855469 C 772.820312 23.625 772.777344 23.40625 772.6875 23.195312 C 772.601562 22.984375 772.476562 22.800781 772.316406 22.640625 C 772.152344 22.480469 771.96875 22.355469 771.757812 22.269531 C 771.546875 22.179688 771.328125 22.136719 771.097656 22.136719 Z M 789.308594 22.136719 C 789.078125 22.136719 788.859375 22.179688 788.648438 22.269531 C 788.4375 22.355469 788.25 22.480469 788.089844 22.640625 C 787.929688 22.804688 787.804688 22.988281 787.714844 23.199219 C 787.628906 23.410156 787.585938 23.632812 787.585938 23.859375 C 787.585938 24.089844 787.628906 24.308594 787.71875 24.519531 C 787.804688 24.730469 787.929688 24.914062 788.089844 25.078125 C 788.253906 25.238281 788.441406 25.363281 788.652344 25.449219 C 788.863281 25.535156 789.082031 25.578125 789.308594 25.578125 C 789.539062 25.578125 789.757812 25.535156 789.96875 25.449219 C 790.179688 25.359375 790.367188 25.234375 790.527344 25.074219 C 790.6875 24.910156 790.8125 24.722656 790.898438 24.511719 C 790.984375 24.300781 791.027344 24.082031 791.027344 23.855469 C 791.027344 23.625 790.984375 23.410156 790.898438 23.199219 C 790.808594 22.988281 790.6875 22.804688 790.527344 22.644531 C 790.367188 22.480469 790.179688 22.359375 789.972656 22.269531 C 789.761719 22.183594 789.542969 22.136719 789.316406 22.136719 Z M 807.515625 22.136719 C 807.285156 22.136719 807.066406 22.179688 806.855469 22.269531 C 806.644531 22.355469 806.457031 22.480469 806.296875 22.640625 C 806.136719 22.804688 806.011719 22.988281 805.925781 23.199219 C 805.835938 23.410156 805.792969 23.632812 805.792969 23.859375 C 805.792969 24.089844 805.835938 24.308594 805.925781 24.519531 C 806.011719 24.730469 806.136719 24.914062 806.300781 25.078125 C 806.460938 25.238281 806.648438 25.363281 806.859375 25.449219 C 807.070312 25.535156 807.289062 25.578125 807.519531 25.578125 C 807.746094 25.578125 807.964844 25.535156 808.175781 25.449219 C 808.386719 25.359375 808.574219 25.234375 808.734375 25.074219 C 808.894531 24.910156 809.019531 24.722656 809.105469 24.511719 C 809.195312 24.300781 809.238281 24.082031 809.234375 23.855469 C 809.234375 23.625 809.191406 23.40625 809.105469 23.195312 C 809.015625 22.984375 808.890625 22.800781 808.730469 22.640625 C 808.570312 22.480469 808.382812 22.355469 808.171875 22.269531 C 807.960938 22.179688 807.742188 22.136719 807.515625 22.136719 Z M 825.722656 22.136719 C 825.496094 22.136719 825.273438 22.179688 825.0625 22.265625 C 824.851562 22.355469 824.664062 22.476562 824.503906 22.640625 C 824.339844 22.800781 824.214844 22.988281 824.128906 23.199219 C 824.042969 23.410156 823.996094 23.628906 823.996094 23.855469 C 823.996094 24.085938 824.039062 24.304688 824.128906 24.515625 C 824.214844 24.726562 824.339844 24.914062 824.5 25.074219 C 824.664062 25.238281 824.847656 25.363281 825.058594 25.449219 C 825.269531 25.535156 825.492188 25.578125 825.71875 25.578125 C 825.949219 25.578125 826.167969 25.535156 826.378906 25.449219 C 826.589844 25.359375 826.777344 25.234375 826.9375 25.074219 C 827.097656 24.910156 827.222656 24.726562 827.308594 24.511719 C 827.398438 24.300781 827.441406 24.082031 827.441406 23.855469 C 827.4375 23.625 827.394531 23.40625 827.308594 23.199219 C 827.21875 22.988281 827.097656 22.800781 826.933594 22.640625 C 826.773438 22.480469 826.589844 22.355469 826.378906 22.269531 C 826.167969 22.179688 825.949219 22.136719 825.722656 22.136719 Z M 843.929688 22.136719 C 843.703125 22.140625 843.484375 22.183594 843.273438 22.273438 C 843.0625 22.363281 842.878906 22.488281 842.71875 22.648438 C 842.558594 22.8125 842.433594 23 842.347656 23.210938 C 842.261719 23.421875 842.222656 23.640625 842.222656 23.867188 C 842.222656 24.097656 842.269531 24.316406 842.355469 24.527344 C 842.445312 24.734375 842.570312 24.921875 842.734375 25.082031 C 842.894531 25.242188 843.082031 25.367188 843.292969 25.453125 C 843.503906 25.539062 843.722656 25.582031 843.949219 25.578125 C 844.179688 25.578125 844.398438 25.535156 844.609375 25.445312 C 844.820312 25.359375 845.003906 25.234375 845.164062 25.070312 C 845.324219 24.910156 845.449219 24.722656 845.535156 24.511719 C 845.621094 24.300781 845.664062 24.082031 845.664062 23.855469 C 845.664062 23.625 845.621094 23.40625 845.53125 23.195312 C 845.441406 22.980469 845.316406 22.796875 845.15625 22.636719 C 844.992188 22.472656 844.804688 22.351562 844.59375 22.265625 C 844.378906 22.175781 844.160156 22.136719 843.929688 22.136719 Z M 862.132812 22.136719 C 861.90625 22.136719 861.6875 22.179688 861.476562 22.269531 C 861.265625 22.355469 861.078125 22.480469 860.917969 22.640625 C 860.753906 22.804688 860.628906 22.988281 860.542969 23.199219 C 860.457031 23.410156 860.414062 23.632812 860.414062 23.859375 C 860.414062 24.089844 860.457031 24.308594 860.542969 24.519531 C 860.632812 24.730469 860.757812 24.914062 860.917969 25.078125 C 861.078125 25.238281 861.265625 25.363281 861.476562 25.449219 C 861.6875 25.535156 861.910156 25.578125 862.136719 25.578125 C 862.363281 25.578125 862.585938 25.535156 862.796875 25.449219 C 863.007812 25.359375 863.191406 25.234375 863.351562 25.074219 C 863.515625 24.910156 863.636719 24.722656 863.726562 24.511719 C 863.8125 24.300781 863.855469 24.082031 863.855469 23.855469 C 863.855469 23.625 863.808594 23.40625 863.722656 23.195312 C 863.636719 22.984375 863.511719 22.800781 863.347656 22.640625 C 863.1875 22.480469 863.003906 22.355469 862.792969 22.269531 C 862.582031 22.179688 862.363281 22.136719 862.132812 22.136719 Z M 880.339844 22.136719 C 880.113281 22.136719 879.894531 22.179688 879.683594 22.269531 C 879.472656 22.355469 879.285156 22.480469 879.125 22.640625 C 878.960938 22.804688 878.839844 22.988281 878.75 23.199219 C 878.664062 23.410156 878.621094 23.632812 878.621094 23.859375 C 878.621094 24.089844 878.664062 24.308594 878.75 24.519531 C 878.839844 24.730469 878.964844 24.914062 879.125 25.078125 C 879.289062 25.238281 879.472656 25.363281 879.683594 25.449219 C 879.894531 25.535156 880.117188 25.578125 880.34375 25.578125 C 880.574219 25.578125 880.792969 25.535156 881.003906 25.449219 C 881.214844 25.359375 881.398438 25.234375 881.5625 25.074219 C 881.722656 24.910156 881.847656 24.722656 881.933594 24.511719 C 882.019531 24.300781 882.0625 24.082031 882.0625 23.855469 C 882.0625 23.625 882.019531 23.40625 881.929688 23.195312 C 881.84375 22.984375 881.71875 22.800781 881.558594 22.640625 C 881.394531 22.480469 881.210938 22.355469 881 22.269531 C 880.789062 22.179688 880.570312 22.136719 880.339844 22.136719 Z M 898.550781 22.136719 C 898.320312 22.132812 898.101562 22.175781 897.886719 22.261719 C 897.675781 22.347656 897.488281 22.472656 897.324219 22.632812 C 897.160156 22.792969 897.035156 22.976562 896.945312 23.1875 C 896.855469 23.398438 896.8125 23.617188 896.808594 23.847656 C 896.808594 24.078125 896.851562 24.296875 896.9375 24.507812 C 897.023438 24.722656 897.148438 24.910156 897.308594 25.070312 C 897.472656 25.234375 897.65625 25.359375 897.867188 25.445312 C 898.078125 25.535156 898.300781 25.578125 898.527344 25.578125 C 898.757812 25.578125 898.976562 25.535156 899.1875 25.449219 C 899.402344 25.363281 899.585938 25.238281 899.75 25.074219 C 899.910156 24.914062 900.035156 24.726562 900.121094 24.515625 C 900.210938 24.304688 900.253906 24.082031 900.253906 23.855469 C 900.253906 23.628906 900.207031 23.410156 900.121094 23.199219 C 900.035156 22.992188 899.914062 22.804688 899.753906 22.644531 C 899.59375 22.484375 899.410156 22.359375 899.203125 22.273438 C 898.992188 22.183594 898.777344 22.140625 898.550781 22.136719 Z M 734.6875 39.746094 C 734.460938 39.746094 734.238281 39.789062 734.027344 39.875 C 733.816406 39.960938 733.628906 40.085938 733.46875 40.25 C 733.308594 40.410156 733.183594 40.59375 733.09375 40.804688 C 733.007812 41.019531 732.964844 41.238281 732.960938 41.464844 C 732.960938 41.695312 733.007812 41.914062 733.09375 42.125 C 733.179688 42.335938 733.304688 42.523438 733.46875 42.683594 C 733.628906 42.847656 733.816406 42.96875 734.027344 43.058594 C 734.238281 43.144531 734.457031 43.1875 734.683594 43.1875 C 734.914062 43.1875 735.132812 43.144531 735.34375 43.058594 C 735.554688 42.96875 735.742188 42.84375 735.902344 42.683594 C 736.066406 42.519531 736.1875 42.335938 736.277344 42.121094 C 736.363281 41.910156 736.40625 41.691406 736.40625 41.464844 C 736.402344 41.234375 736.359375 41.019531 736.269531 40.808594 C 736.183594 40.601562 736.058594 40.414062 735.898438 40.257812 C 735.738281 40.097656 735.550781 39.972656 735.34375 39.886719 C 735.132812 39.800781 734.914062 39.753906 734.6875 39.753906 Z M 752.894531 39.746094 C 752.667969 39.746094 752.449219 39.789062 752.238281 39.875 C 752.027344 39.960938 751.839844 40.085938 751.675781 40.246094 C 751.515625 40.410156 751.390625 40.59375 751.304688 40.804688 C 751.214844 41.015625 751.171875 41.234375 751.171875 41.464844 C 751.171875 41.691406 751.214844 41.914062 751.300781 42.125 C 751.386719 42.335938 751.511719 42.519531 751.671875 42.683594 C 751.835938 42.84375 752.019531 42.96875 752.230469 43.058594 C 752.441406 43.144531 752.660156 43.1875 752.890625 43.1875 C 753.117188 43.1875 753.339844 43.144531 753.550781 43.058594 C 753.761719 42.972656 753.945312 42.847656 754.109375 42.683594 C 754.269531 42.523438 754.394531 42.335938 754.480469 42.125 C 754.570312 41.914062 754.613281 41.695312 754.613281 41.46875 C 754.613281 41.242188 754.566406 41.023438 754.480469 40.8125 C 754.390625 40.601562 754.269531 40.417969 754.105469 40.257812 C 753.945312 40.097656 753.761719 39.972656 753.550781 39.886719 C 753.339844 39.800781 753.125 39.753906 752.894531 39.753906 Z M 771.097656 39.746094 C 770.871094 39.746094 770.652344 39.789062 770.441406 39.878906 C 770.230469 39.964844 770.042969 40.089844 769.882812 40.25 C 769.71875 40.414062 769.597656 40.597656 769.507812 40.808594 C 769.421875 41.019531 769.378906 41.242188 769.378906 41.46875 C 769.378906 41.695312 769.421875 41.917969 769.511719 42.128906 C 769.597656 42.339844 769.722656 42.523438 769.882812 42.6875 C 770.046875 42.847656 770.230469 42.972656 770.441406 43.058594 C 770.652344 43.144531 770.875 43.1875 771.101562 43.1875 C 771.332031 43.1875 771.550781 43.144531 771.761719 43.054688 C 771.972656 42.96875 772.15625 42.84375 772.320312 42.683594 C 772.480469 42.519531 772.605469 42.332031 772.691406 42.121094 C 772.777344 41.910156 772.820312 41.691406 772.820312 41.464844 C 772.820312 41.234375 772.773438 41.019531 772.6875 40.808594 C 772.597656 40.597656 772.472656 40.414062 772.3125 40.253906 C 772.152344 40.09375 771.964844 39.972656 771.753906 39.882812 C 771.546875 39.796875 771.328125 39.753906 771.097656 39.753906 Z M 789.308594 39.746094 C 789.078125 39.746094 788.859375 39.789062 788.648438 39.878906 C 788.4375 39.964844 788.25 40.089844 788.089844 40.25 C 787.929688 40.410156 787.804688 40.597656 787.71875 40.808594 C 787.628906 41.019531 787.585938 41.238281 787.585938 41.46875 C 787.585938 41.695312 787.628906 41.914062 787.71875 42.125 C 787.804688 42.335938 787.929688 42.523438 788.089844 42.683594 C 788.25 42.847656 788.4375 42.96875 788.648438 43.058594 C 788.859375 43.144531 789.078125 43.1875 789.308594 43.1875 C 789.535156 43.1875 789.753906 43.144531 789.964844 43.058594 C 790.175781 42.96875 790.363281 42.847656 790.523438 42.683594 C 790.6875 42.523438 790.808594 42.335938 790.898438 42.125 C 790.984375 41.914062 791.027344 41.695312 791.027344 41.46875 C 791.027344 41.242188 790.984375 41.023438 790.894531 40.8125 C 790.808594 40.605469 790.683594 40.417969 790.523438 40.257812 C 790.363281 40.097656 790.179688 39.976562 789.96875 39.886719 C 789.761719 39.800781 789.542969 39.757812 789.316406 39.753906 Z M 807.515625 39.746094 C 807.285156 39.746094 807.066406 39.789062 806.855469 39.878906 C 806.644531 39.964844 806.460938 40.089844 806.296875 40.25 C 806.136719 40.410156 806.011719 40.597656 805.925781 40.808594 C 805.835938 41.019531 805.792969 41.238281 805.792969 41.46875 C 805.792969 41.695312 805.835938 41.914062 805.925781 42.125 C 806.011719 42.335938 806.136719 42.523438 806.296875 42.683594 C 806.460938 42.847656 806.644531 42.96875 806.855469 43.058594 C 807.066406 43.144531 807.285156 43.1875 807.515625 43.1875 C 807.742188 43.1875 807.960938 43.144531 808.171875 43.058594 C 808.382812 42.96875 808.570312 42.847656 808.730469 42.683594 C 808.894531 42.523438 809.019531 42.335938 809.105469 42.125 C 809.191406 41.914062 809.234375 41.695312 809.234375 41.46875 C 809.234375 41.238281 809.191406 41.019531 809.101562 40.8125 C 809.015625 40.601562 808.890625 40.417969 808.730469 40.257812 C 808.566406 40.09375 808.382812 39.972656 808.171875 39.886719 C 807.960938 39.796875 807.742188 39.753906 807.515625 39.753906 Z M 825.722656 39.746094 C 825.496094 39.746094 825.273438 39.789062 825.0625 39.875 C 824.851562 39.960938 824.664062 40.085938 824.503906 40.246094 C 824.34375 40.410156 824.21875 40.59375 824.128906 40.804688 C 824.042969 41.015625 823.996094 41.234375 823.996094 41.464844 C 823.996094 41.691406 824.039062 41.914062 824.128906 42.125 C 824.214844 42.335938 824.339844 42.519531 824.5 42.683594 C 824.660156 42.84375 824.847656 42.96875 825.058594 43.058594 C 825.269531 43.144531 825.488281 43.1875 825.714844 43.1875 C 825.945312 43.1875 826.164062 43.144531 826.375 43.058594 C 826.585938 42.972656 826.773438 42.847656 826.933594 42.683594 C 827.097656 42.523438 827.222656 42.335938 827.308594 42.125 C 827.394531 41.914062 827.441406 41.695312 827.441406 41.46875 C 827.4375 41.242188 827.394531 41.023438 827.304688 40.8125 C 827.21875 40.601562 827.09375 40.417969 826.933594 40.257812 C 826.773438 40.097656 826.585938 39.972656 826.378906 39.886719 C 826.167969 39.800781 825.949219 39.753906 825.722656 39.753906 Z M 843.929688 39.746094 C 843.703125 39.746094 843.484375 39.792969 843.273438 39.882812 C 843.0625 39.96875 842.878906 40.097656 842.71875 40.257812 C 842.558594 40.421875 842.433594 40.609375 842.347656 40.820312 C 842.261719 41.03125 842.222656 41.25 842.222656 41.476562 C 842.222656 41.707031 842.269531 41.925781 842.355469 42.136719 C 842.445312 42.34375 842.570312 42.53125 842.734375 42.691406 C 842.894531 42.851562 843.082031 42.972656 843.292969 43.0625 C 843.503906 43.148438 843.722656 43.191406 843.949219 43.1875 C 844.179688 43.1875 844.398438 43.144531 844.609375 43.054688 C 844.820312 42.96875 845.003906 42.84375 845.164062 42.679688 C 845.324219 42.519531 845.449219 42.332031 845.535156 42.121094 C 845.621094 41.910156 845.664062 41.691406 845.664062 41.464844 C 845.664062 41.234375 845.617188 41.015625 845.527344 40.804688 C 845.441406 40.59375 845.3125 40.410156 845.152344 40.25 C 844.988281 40.089844 844.800781 39.964844 844.589844 39.878906 C 844.378906 39.796875 844.160156 39.753906 843.929688 39.753906 Z M 862.132812 39.746094 C 861.90625 39.746094 861.6875 39.789062 861.476562 39.878906 C 861.265625 39.964844 861.078125 40.089844 860.917969 40.25 C 860.753906 40.410156 860.628906 40.597656 860.542969 40.808594 C 860.457031 41.019531 860.414062 41.238281 860.414062 41.46875 C 860.414062 41.695312 860.457031 41.914062 860.542969 42.125 C 860.628906 42.335938 860.753906 42.523438 860.917969 42.683594 C 861.078125 42.847656 861.265625 42.96875 861.476562 43.058594 C 861.6875 43.144531 861.90625 43.1875 862.132812 43.1875 C 862.363281 43.1875 862.582031 43.144531 862.792969 43.058594 C 863.003906 42.96875 863.191406 42.847656 863.351562 42.683594 C 863.511719 42.523438 863.636719 42.335938 863.722656 42.125 C 863.8125 41.914062 863.855469 41.695312 863.855469 41.46875 C 863.855469 41.238281 863.808594 41.019531 863.722656 40.8125 C 863.632812 40.601562 863.507812 40.417969 863.347656 40.257812 C 863.1875 40.09375 863 39.972656 862.789062 39.886719 C 862.582031 39.796875 862.359375 39.753906 862.132812 39.753906 Z M 880.339844 39.746094 C 880.113281 39.746094 879.894531 39.789062 879.683594 39.878906 C 879.472656 39.964844 879.285156 40.089844 879.125 40.25 C 878.964844 40.410156 878.839844 40.597656 878.75 40.808594 C 878.664062 41.019531 878.621094 41.238281 878.621094 41.46875 C 878.621094 41.695312 878.664062 41.914062 878.75 42.125 C 878.839844 42.335938 878.964844 42.523438 879.125 42.683594 C 879.285156 42.847656 879.472656 42.96875 879.683594 43.058594 C 879.894531 43.144531 880.113281 43.1875 880.339844 43.1875 C 880.570312 43.1875 880.789062 43.144531 881 43.058594 C 881.210938 42.96875 881.398438 42.847656 881.558594 42.683594 C 881.71875 42.523438 881.84375 42.335938 881.933594 42.125 C 882.019531 41.914062 882.0625 41.695312 882.0625 41.46875 C 882.0625 41.238281 882.015625 41.019531 881.929688 40.8125 C 881.839844 40.601562 881.714844 40.417969 881.554688 40.257812 C 881.394531 40.09375 881.207031 39.972656 881 39.886719 C 880.789062 39.796875 880.570312 39.753906 880.339844 39.753906 Z M 898.550781 39.746094 C 898.320312 39.742188 898.101562 39.785156 897.886719 39.871094 C 897.675781 39.957031 897.488281 40.078125 897.324219 40.242188 C 897.160156 40.402344 897.035156 40.585938 896.945312 40.796875 C 896.855469 41.007812 896.8125 41.226562 896.808594 41.457031 C 896.808594 41.6875 896.851562 41.90625 896.9375 42.117188 C 897.023438 42.328125 897.148438 42.515625 897.308594 42.679688 C 897.472656 42.84375 897.65625 42.96875 897.867188 43.054688 C 898.078125 43.144531 898.300781 43.1875 898.527344 43.1875 C 898.757812 43.1875 898.976562 43.144531 899.1875 43.058594 C 899.402344 42.96875 899.585938 42.847656 899.75 42.683594 C 899.910156 42.523438 900.035156 42.335938 900.121094 42.125 C 900.210938 41.910156 900.253906 41.691406 900.253906 41.464844 C 900.25 41.238281 900.207031 41.019531 900.121094 40.8125 C 900.03125 40.605469 899.910156 40.421875 899.75 40.261719 C 899.589844 40.101562 899.40625 39.976562 899.199219 39.890625 C 898.992188 39.800781 898.773438 39.757812 898.550781 39.753906 Z M 898.550781 39.746094 " fill-opacity="1" fill-rule="nonzero"/></g><g clip-path="url(#fb89213e9d)"><path fill="#bbe1fa" d="M 109.953125 561.671875 C 109.953125 521.195312 142.828125 488.316406 183.308594 488.316406 L 183.308594 457.03125 C 125.507812 457.03125 78.664062 503.871094 78.664062 561.671875 Z M 109.953125 561.671875 " fill-opacity="1" fill-rule="nonzero"/></g><g clip-path="url(#9190eb89a7)"><path fill="#3282b8" d="M 276.351562 561.671875 C 276.351562 521.195312 243.472656 488.316406 202.996094 488.316406 L 202.996094 457.03125 C 260.796875 457.03125 307.636719 503.871094 307.636719 561.671875 Z M 276.351562 561.671875 " fill-opacity="1" fill-rule="nonzero"/></g><g clip-path="url(#fbfa746124)"><g clip-path="url(#df04e967f8)"><path fill="#ececec" d="M 191.503906 80.773438 L 214.484375 80.773438 L 214.484375 103.757812 L 191.503906 103.757812 Z M 191.503906 80.773438 " fill-opacity="1" fill-rule="nonzero"/></g></g><g clip-path="url(#7a4d0e7952)"><g clip-path="url(#6c9e6680e1)"><path fill="#ececec" d="M 732.769531 241.429688 L 783.824219 241.429688 L 783.824219 292.484375 L 732.769531 292.484375 Z M 732.769531 241.429688 " fill-opacity="1" fill-rule="nonzero"/></g></g><g clip-path="url(#90890d6985)"><path fill="#bbe1fa" d="M -18.210938 368.957031 C -20.261719 368.957031 -22.304688 368.867188 -24.347656 368.691406 C -26.390625 368.511719 -28.417969 368.25 -30.4375 367.898438 C -32.457031 367.550781 -34.457031 367.113281 -36.441406 366.589844 C -38.421875 366.070312 -40.378906 365.464844 -42.308594 364.773438 C -44.238281 364.085938 -46.132812 363.3125 -47.996094 362.460938 C -49.859375 361.609375 -51.683594 360.679688 -53.46875 359.671875 C -55.253906 358.664062 -56.992188 357.578125 -58.683594 356.421875 C -60.371094 355.265625 -62.011719 354.039062 -63.597656 352.738281 C -65.183594 351.441406 -66.710938 350.078125 -68.179688 348.648438 C -69.648438 347.222656 -71.054688 345.734375 -72.398438 344.183594 C -73.738281 342.632812 -75.011719 341.03125 -76.214844 339.371094 C -77.417969 337.714844 -78.550781 336.007812 -79.609375 334.253906 C -80.667969 332.496094 -81.648438 330.699219 -82.550781 328.863281 C -83.457031 327.023438 -84.277344 325.148438 -85.023438 323.238281 C -85.765625 321.328125 -86.425781 319.390625 -87.003906 317.425781 C -87.582031 315.457031 -88.070312 313.46875 -88.480469 311.460938 C -88.886719 309.453125 -89.207031 307.429688 -89.441406 305.394531 C -89.671875 303.359375 -89.820312 301.316406 -89.878906 299.269531 C -89.9375 297.21875 -89.90625 295.171875 -89.789062 293.128906 C -89.671875 291.082031 -89.46875 289.042969 -89.179688 287.015625 C -88.886719 284.988281 -88.507812 282.976562 -88.046875 280.980469 C -87.582031 278.984375 -87.03125 277.011719 -86.398438 275.0625 C -85.765625 273.113281 -85.050781 271.195312 -84.253906 269.304688 C -83.457031 267.417969 -82.582031 265.566406 -81.625 263.753906 C -80.667969 261.941406 -79.636719 260.175781 -78.53125 258.449219 C -77.421875 256.726562 -76.242188 255.050781 -74.992188 253.429688 C -73.742188 251.804688 -72.421875 250.238281 -71.039062 248.730469 C -69.652344 247.21875 -68.207031 245.769531 -66.695312 244.382812 C -65.1875 242.996094 -63.621094 241.679688 -62 240.425781 C -60.375 239.175781 -58.703125 237.992188 -56.980469 236.886719 C -55.257812 235.777344 -53.488281 234.742188 -51.675781 233.785156 C -49.867188 232.828125 -48.015625 231.953125 -46.128906 231.152344 C -45.046875 230.703125 -43.957031 230.28125 -42.855469 229.886719 C -41.757812 229.488281 -40.644531 229.121094 -39.527344 228.78125 C -38.410156 228.4375 -37.28125 228.125 -36.148438 227.839844 C -35.011719 227.550781 -33.875 227.292969 -32.726562 227.0625 C -31.578125 226.832031 -30.425781 226.628906 -29.269531 226.457031 C -28.113281 226.28125 -26.953125 226.136719 -25.789062 226.019531 C -24.625 225.902344 -23.460938 225.8125 -22.292969 225.753906 C -21.125 225.691406 -19.953125 225.660156 -18.785156 225.65625 C -17.613281 225.652344 -16.445312 225.679688 -15.277344 225.734375 C -14.109375 225.789062 -12.941406 225.871094 -11.777344 225.980469 C -10.613281 226.09375 -9.453125 226.230469 -8.292969 226.398438 C -7.136719 226.566406 -5.984375 226.761719 -4.835938 226.988281 C -3.6875 227.210938 -2.546875 227.464844 -1.410156 227.746094 C -0.273438 228.023438 0.855469 228.332031 1.976562 228.667969 C 3.09375 229.003906 4.207031 229.367188 5.308594 229.753906 C 6.414062 230.144531 7.507812 230.5625 8.589844 231.003906 C 9.671875 231.449219 10.742188 231.917969 11.800781 232.414062 C 12.863281 232.910156 13.910156 233.429688 14.941406 233.976562 C 15.976562 234.523438 16.996094 235.09375 18.003906 235.691406 C 19.007812 236.289062 20 236.910156 20.976562 237.554688 C 21.953125 238.199219 22.910156 238.867188 23.855469 239.5625 C 24.796875 240.253906 25.722656 240.96875 26.632812 241.703125 C 27.539062 242.441406 28.429688 243.203125 29.300781 243.984375 C 30.171875 244.761719 31.023438 245.566406 31.855469 246.386719 C 32.683594 247.210938 33.496094 248.050781 34.289062 248.914062 C 35.078125 249.777344 35.847656 250.660156 36.59375 251.558594 C 37.339844 252.457031 38.066406 253.375 38.769531 254.3125 C 39.472656 255.246094 40.152344 256.199219 40.808594 257.167969 C 41.460938 258.136719 42.09375 259.121094 42.703125 260.117188 C 43.308594 261.117188 43.894531 262.132812 44.453125 263.160156 C 45.011719 264.1875 45.542969 265.230469 46.050781 266.28125 C 46.558594 267.335938 47.039062 268.402344 47.492188 269.480469 C 47.949219 270.558594 48.378906 271.644531 48.78125 272.746094 C 49.179688 273.84375 49.554688 274.949219 49.902344 276.066406 C 50.25 277.183594 50.570312 278.308594 50.863281 279.441406 C 51.15625 280.574219 51.421875 281.714844 51.660156 282.859375 C 51.898438 284.003906 52.105469 285.15625 52.285156 286.3125 C 52.46875 287.46875 52.621094 288.625 52.742188 289.789062 C 52.867188 290.953125 52.964844 292.117188 53.03125 293.285156 C 53.097656 294.453125 53.136719 295.625 53.144531 296.792969 C 53.15625 297.960938 53.136719 299.132812 53.089844 300.300781 C 53.042969 301.46875 52.964844 302.636719 52.859375 303.800781 C 52.757812 304.964844 52.625 306.128906 52.460938 307.289062 C 52.300781 308.445312 52.113281 309.601562 51.894531 310.75 C 51.675781 311.898438 51.429688 313.042969 51.15625 314.179688 C 50.882812 315.316406 50.582031 316.445312 50.253906 317.570312 C 49.921875 318.691406 49.566406 319.804688 49.183594 320.910156 C 48.800781 322.015625 48.390625 323.109375 47.953125 324.195312 C 47.515625 325.28125 47.054688 326.355469 46.5625 327.417969 C 46.074219 328.480469 45.558594 329.53125 45.019531 330.566406 C 44.476562 331.605469 43.910156 332.628906 43.320312 333.636719 C 42.730469 334.648438 42.113281 335.640625 41.472656 336.621094 C 40.835938 337.601562 40.171875 338.5625 39.484375 339.511719 C 38.796875 340.457031 38.089844 341.386719 37.355469 342.300781 C 36.625 343.210938 35.871094 344.105469 35.09375 344.980469 C 34.316406 345.855469 33.519531 346.710938 32.703125 347.546875 C 31.886719 348.386719 31.046875 349.199219 30.191406 349.996094 C 29.332031 350.792969 28.457031 351.566406 27.558594 352.316406 C 26.664062 353.070312 25.75 353.800781 24.820312 354.507812 C 23.886719 355.214844 22.941406 355.902344 21.976562 356.5625 C 21.011719 357.222656 20.03125 357.863281 19.035156 358.476562 C 18.039062 359.089844 17.027344 359.675781 16.003906 360.242188 C 14.976562 360.804688 13.941406 361.34375 12.890625 361.859375 C 11.835938 362.371094 10.773438 362.859375 9.699219 363.320312 C 0.777344 367.097656 -8.523438 368.976562 -18.210938 368.957031 Z M -18.210938 228.136719 C -56.3125 228.136719 -87.3125 259.132812 -87.3125 297.234375 C -87.3125 335.339844 -56.3125 366.335938 -18.210938 366.335938 C 19.890625 366.335938 50.890625 335.339844 50.890625 297.234375 C 50.890625 259.132812 19.890625 228.136719 -18.210938 228.136719 Z M -18.210938 228.136719 " fill-opacity="1" fill-rule="nonzero"/></g><g clip-path="url(#ae18df180d)"><path fill="#bbe1fa" d="M -18.210938 356.175781 C -19.410156 356.171875 -20.609375 356.136719 -21.808594 356.058594 C -23.007812 355.984375 -24.203125 355.875 -25.394531 355.726562 C -26.582031 355.578125 -27.769531 355.390625 -28.949219 355.171875 C -30.128906 354.949219 -31.300781 354.691406 -32.464844 354.402344 C -33.628906 354.109375 -34.785156 353.78125 -35.925781 353.417969 C -37.070312 353.050781 -38.203125 352.65625 -39.324219 352.222656 C -40.441406 351.789062 -41.546875 351.320312 -42.636719 350.820312 C -43.730469 350.320312 -44.804688 349.785156 -45.863281 349.21875 C -46.921875 348.652344 -47.960938 348.054688 -48.980469 347.425781 C -50.003906 346.796875 -51.003906 346.132812 -51.988281 345.441406 C -52.96875 344.75 -53.925781 344.03125 -54.863281 343.28125 C -55.800781 342.527344 -56.714844 341.75 -57.601562 340.945312 C -58.492188 340.136719 -59.355469 339.304688 -60.195312 338.445312 C -61.03125 337.585938 -61.84375 336.703125 -62.625 335.792969 C -63.410156 334.882812 -64.167969 333.953125 -64.894531 332.996094 C -65.621094 332.042969 -66.316406 331.066406 -66.984375 330.066406 C -67.652344 329.070312 -68.285156 328.050781 -68.890625 327.015625 C -69.496094 325.976562 -70.066406 324.921875 -70.609375 323.851562 C -71.148438 322.777344 -71.65625 321.691406 -72.128906 320.589844 C -72.601562 319.484375 -73.039062 318.367188 -73.445312 317.238281 C -73.851562 316.109375 -74.21875 314.96875 -74.554688 313.8125 C -74.890625 312.660156 -75.1875 311.5 -75.453125 310.328125 C -75.714844 309.15625 -75.945312 307.980469 -76.136719 306.792969 C -76.328125 305.609375 -76.480469 304.417969 -76.601562 303.226562 C -76.71875 302.03125 -76.800781 300.832031 -76.847656 299.632812 C -76.890625 298.433594 -76.898438 297.234375 -76.871094 296.035156 C -76.84375 294.835938 -76.777344 293.636719 -76.675781 292.441406 C -76.574219 291.246094 -76.4375 290.054688 -76.261719 288.867188 C -76.085938 287.679688 -75.875 286.496094 -75.628906 285.320312 C -75.382812 284.148438 -75.097656 282.980469 -74.78125 281.824219 C -74.460938 280.667969 -74.109375 279.519531 -73.71875 278.382812 C -73.328125 277.25 -72.90625 276.125 -72.449219 275.015625 C -71.992188 273.90625 -71.5 272.8125 -70.976562 271.734375 C -70.449219 270.652344 -69.890625 269.589844 -69.300781 268.546875 C -68.710938 267.5 -68.089844 266.472656 -67.4375 265.464844 C -66.785156 264.460938 -66.101562 263.472656 -65.390625 262.507812 C -64.675781 261.542969 -63.933594 260.597656 -63.164062 259.679688 C -62.390625 258.757812 -61.59375 257.863281 -60.765625 256.992188 C -59.941406 256.121094 -59.089844 255.277344 -58.210938 254.457031 C -57.332031 253.640625 -56.429688 252.847656 -55.503906 252.085938 C -54.578125 251.320312 -53.628906 250.585938 -52.660156 249.882812 C -51.6875 249.175781 -50.695312 248.5 -49.683594 247.855469 C -48.671875 247.210938 -47.640625 246.597656 -46.589844 246.015625 C -45.539062 245.4375 -44.472656 244.886719 -43.386719 244.371094 C -42.304688 243.855469 -41.207031 243.375 -40.09375 242.925781 C -38.980469 242.476562 -37.851562 242.0625 -36.714844 241.683594 C -35.574219 241.304688 -34.425781 240.957031 -33.265625 240.648438 C -32.105469 240.339844 -30.9375 240.066406 -29.761719 239.828125 C -28.585938 239.589844 -27.402344 239.390625 -26.210938 239.226562 C -25.023438 239.058594 -23.832031 238.933594 -22.632812 238.839844 C -21.4375 238.746094 -20.238281 238.691406 -19.039062 238.675781 C -17.839844 238.65625 -16.636719 238.675781 -15.4375 238.730469 C -14.238281 238.785156 -13.042969 238.875 -11.851562 239.003906 C -10.65625 239.132812 -9.46875 239.296875 -8.285156 239.5 C -7.101562 239.699219 -5.925781 239.9375 -4.757812 240.210938 C -3.585938 240.484375 -2.429688 240.792969 -1.277344 241.136719 C -0.128906 241.480469 1.007812 241.859375 2.136719 242.273438 C 3.261719 242.6875 4.375 243.136719 5.476562 243.621094 C 6.574219 244.101562 7.65625 244.617188 8.726562 245.167969 C 9.792969 245.714844 10.84375 246.296875 11.875 246.910156 C 12.90625 247.523438 13.917969 248.167969 14.910156 248.839844 C 15.902344 249.515625 16.875 250.222656 17.824219 250.957031 C 18.773438 251.691406 19.699219 252.453125 20.601562 253.246094 C 21.503906 254.035156 22.382812 254.855469 23.234375 255.699219 C 24.085938 256.546875 24.914062 257.414062 25.710938 258.3125 C 26.511719 259.207031 27.28125 260.125 28.023438 261.070312 C 28.765625 262.011719 29.480469 262.976562 30.164062 263.964844 C 30.847656 264.949219 31.5 265.957031 32.121094 266.984375 C 32.742188 268.011719 33.332031 269.054688 33.890625 270.117188 C 34.449219 271.183594 34.972656 272.261719 35.464844 273.355469 C 35.957031 274.449219 36.414062 275.558594 36.839844 276.683594 C 37.261719 277.804688 37.652344 278.941406 38.003906 280.089844 C 38.359375 281.234375 38.675781 282.390625 38.960938 283.558594 C 39.242188 284.726562 39.492188 285.898438 39.703125 287.082031 C 39.914062 288.261719 40.089844 289.449219 40.226562 290.640625 C 40.367188 291.832031 40.46875 293.03125 40.53125 294.226562 C 40.597656 295.425781 40.625 296.625 40.617188 297.828125 C 40.609375 299.027344 40.566406 300.226562 40.484375 301.421875 C 40.402344 302.621094 40.28125 303.816406 40.128906 305.003906 C 39.972656 306.195312 39.78125 307.378906 39.554688 308.558594 C 39.328125 309.738281 39.0625 310.90625 38.765625 312.070312 C 38.464844 313.234375 38.128906 314.386719 37.761719 315.527344 C 37.390625 316.667969 36.984375 317.796875 36.546875 318.914062 C 36.109375 320.03125 35.636719 321.136719 35.128906 322.222656 C 34.621094 323.3125 34.082031 324.382812 33.507812 325.4375 C 32.9375 326.492188 32.332031 327.53125 31.695312 328.546875 C 31.0625 329.566406 30.394531 330.5625 29.699219 331.542969 C 29 332.519531 28.273438 333.472656 27.519531 334.40625 C 26.761719 335.339844 25.980469 336.246094 25.167969 337.132812 C 24.355469 338.015625 23.519531 338.875 22.65625 339.710938 C 21.789062 340.542969 20.902344 341.347656 19.988281 342.128906 C 19.074219 342.90625 18.140625 343.65625 17.179688 344.378906 C 16.21875 345.097656 15.238281 345.789062 14.238281 346.453125 C 13.238281 347.113281 12.214844 347.742188 11.175781 348.34375 C 10.132812 348.941406 9.078125 349.507812 8.003906 350.042969 C 6.925781 350.574219 5.835938 351.078125 4.730469 351.542969 C -2.601562 354.644531 -10.25 356.191406 -18.210938 356.175781 Z M -18.210938 240.917969 C -49.265625 240.917969 -74.53125 266.183594 -74.53125 297.234375 C -74.53125 328.289062 -49.265625 353.554688 -18.210938 353.554688 C 12.84375 353.554688 38.109375 328.289062 38.109375 297.234375 C 38.109375 266.183594 12.84375 240.917969 -18.210938 240.917969 Z M -18.210938 240.917969 " fill-opacity="1" fill-rule="nonzero"/></g><g clip-path="url(#321e474ddf)"><path fill="#bbe1fa" d="M -18.210938 343.125 C -19.085938 343.125 -19.964844 343.101562 -20.839844 343.050781 C -21.710938 343 -22.585938 342.925781 -23.457031 342.824219 C -24.328125 342.722656 -25.195312 342.601562 -26.058594 342.449219 C -26.921875 342.300781 -27.777344 342.125 -28.632812 341.925781 C -29.484375 341.726562 -30.332031 341.503906 -31.171875 341.257812 C -32.015625 341.011719 -32.847656 340.738281 -33.671875 340.441406 C -34.496094 340.148438 -35.3125 339.828125 -36.121094 339.488281 C -36.925781 339.144531 -37.722656 338.78125 -38.507812 338.394531 C -39.296875 338.007812 -40.070312 337.597656 -40.832031 337.164062 C -41.59375 336.734375 -42.34375 336.277344 -43.082031 335.804688 C -43.816406 335.328125 -44.539062 334.832031 -45.246094 334.316406 C -45.957031 333.800781 -46.648438 333.265625 -47.324219 332.710938 C -48.003906 332.152344 -48.664062 331.578125 -49.308594 330.984375 C -49.953125 330.390625 -50.582031 329.78125 -51.191406 329.148438 C -51.800781 328.519531 -52.390625 327.875 -52.960938 327.210938 C -53.535156 326.546875 -54.085938 325.867188 -54.621094 325.171875 C -55.15625 324.476562 -55.667969 323.765625 -56.160156 323.042969 C -56.652344 322.316406 -57.125 321.578125 -57.574219 320.828125 C -58.027344 320.078125 -58.457031 319.3125 -58.863281 318.535156 C -59.269531 317.761719 -59.652344 316.972656 -60.015625 316.175781 C -60.375 315.375 -60.714844 314.570312 -61.03125 313.75 C -61.347656 312.933594 -61.636719 312.109375 -61.90625 311.273438 C -62.171875 310.4375 -62.417969 309.597656 -62.636719 308.75 C -62.859375 307.902344 -63.054688 307.046875 -63.222656 306.1875 C -63.394531 305.328125 -63.542969 304.464844 -63.664062 303.597656 C -63.785156 302.730469 -63.882812 301.859375 -63.953125 300.984375 C -64.023438 300.113281 -64.070312 299.238281 -64.09375 298.359375 C -64.113281 297.484375 -64.109375 296.609375 -64.082031 295.734375 C -64.054688 294.859375 -64 293.984375 -63.921875 293.109375 C -63.84375 292.238281 -63.738281 291.367188 -63.609375 290.5 C -63.480469 289.632812 -63.328125 288.773438 -63.148438 287.914062 C -62.972656 287.054688 -62.769531 286.203125 -62.542969 285.355469 C -62.316406 284.511719 -62.066406 283.671875 -61.789062 282.839844 C -61.515625 282.007812 -61.21875 281.183594 -60.894531 280.367188 C -60.574219 279.554688 -60.226562 278.75 -59.859375 277.953125 C -59.492188 277.15625 -59.101562 276.375 -58.6875 275.601562 C -58.273438 274.828125 -57.839844 274.066406 -57.382812 273.320312 C -56.925781 272.570312 -56.449219 271.835938 -55.949219 271.117188 C -55.453125 270.398438 -54.933594 269.691406 -54.394531 269 C -53.855469 268.308594 -53.296875 267.632812 -52.71875 266.976562 C -52.140625 266.316406 -51.542969 265.675781 -50.929688 265.050781 C -50.316406 264.425781 -49.683594 263.820312 -49.035156 263.230469 C -48.386719 262.640625 -47.71875 262.070312 -47.039062 261.523438 C -46.355469 260.972656 -45.660156 260.441406 -44.945312 259.929688 C -44.234375 259.421875 -43.507812 258.929688 -42.769531 258.460938 C -42.027344 257.992188 -41.273438 257.546875 -40.507812 257.121094 C -39.742188 256.695312 -38.964844 256.289062 -38.175781 255.910156 C -37.386719 255.527344 -36.585938 255.171875 -35.777344 254.835938 C -34.96875 254.5 -34.148438 254.1875 -33.320312 253.898438 C -32.496094 253.609375 -31.660156 253.347656 -30.816406 253.105469 C -29.972656 252.863281 -29.125 252.648438 -28.269531 252.457031 C -27.414062 252.265625 -26.554688 252.097656 -25.691406 251.953125 C -24.828125 251.8125 -23.957031 251.691406 -23.085938 251.601562 C -22.214844 251.507812 -21.34375 251.4375 -20.46875 251.394531 C -19.59375 251.351562 -18.714844 251.335938 -17.839844 251.34375 C -16.964844 251.347656 -16.089844 251.382812 -15.214844 251.4375 C -14.339844 251.496094 -13.46875 251.578125 -12.597656 251.6875 C -11.726562 251.792969 -10.863281 251.925781 -10 252.082031 C -9.136719 252.238281 -8.28125 252.421875 -7.429688 252.625 C -6.578125 252.832031 -5.730469 253.0625 -4.894531 253.316406 C -4.054688 253.570312 -3.222656 253.847656 -2.402344 254.152344 C -1.578125 254.453125 -0.765625 254.777344 0.0390625 255.125 C 0.84375 255.476562 1.636719 255.847656 2.417969 256.242188 C 3.203125 256.632812 3.972656 257.050781 4.730469 257.488281 C 5.488281 257.925781 6.234375 258.386719 6.96875 258.867188 C 7.699219 259.347656 8.417969 259.847656 9.125 260.371094 C 9.828125 260.894531 10.515625 261.433594 11.1875 261.996094 C 11.859375 262.558594 12.515625 263.136719 13.15625 263.738281 C 13.796875 264.335938 14.417969 264.953125 15.023438 265.589844 C 15.625 266.222656 16.210938 266.875 16.78125 267.542969 C 17.347656 268.210938 17.894531 268.894531 18.421875 269.59375 C 18.949219 270.292969 19.457031 271.007812 19.945312 271.734375 C 20.429688 272.464844 20.894531 273.207031 21.339844 273.960938 C 21.785156 274.71875 22.207031 275.484375 22.605469 276.265625 C 23.007812 277.042969 23.386719 277.832031 23.742188 278.636719 C 24.097656 279.4375 24.425781 280.246094 24.738281 281.066406 C 25.046875 281.886719 25.328125 282.714844 25.589844 283.550781 C 25.851562 284.386719 26.089844 285.230469 26.300781 286.082031 C 26.515625 286.933594 26.703125 287.789062 26.867188 288.648438 C 27.03125 289.507812 27.171875 290.375 27.285156 291.242188 C 27.398438 292.109375 27.488281 292.984375 27.554688 293.855469 C 27.617188 294.730469 27.65625 295.605469 27.671875 296.480469 C 27.6875 297.359375 27.675781 298.234375 27.640625 299.109375 C 27.605469 299.984375 27.542969 300.859375 27.457031 301.730469 C 27.371094 302.601562 27.261719 303.472656 27.125 304.335938 C 26.988281 305.203125 26.828125 306.066406 26.644531 306.921875 C 26.457031 307.777344 26.25 308.628906 26.015625 309.472656 C 25.78125 310.316406 25.523438 311.15625 25.242188 311.984375 C 24.960938 312.8125 24.65625 313.636719 24.328125 314.449219 C 24 315.261719 23.644531 316.0625 23.273438 316.855469 C 22.898438 317.648438 22.5 318.425781 22.082031 319.195312 C 21.660156 319.964844 21.21875 320.722656 20.757812 321.46875 C 20.292969 322.210938 19.8125 322.941406 19.304688 323.65625 C 18.800781 324.375 18.277344 325.074219 17.730469 325.761719 C 17.1875 326.449219 16.625 327.117188 16.039062 327.773438 C 15.457031 328.425781 14.855469 329.0625 14.234375 329.683594 C 12.109375 331.820312 9.796875 333.730469 7.292969 335.40625 C 4.789062 337.085938 2.144531 338.5 -0.640625 339.65625 C -3.425781 340.808594 -6.296875 341.675781 -9.253906 342.261719 C -12.210938 342.84375 -15.195312 343.132812 -18.210938 343.125 Z M -18.210938 253.96875 C -42.070312 253.96875 -61.480469 273.378906 -61.480469 297.234375 C -61.480469 321.09375 -42.070312 340.503906 -18.210938 340.503906 C 5.648438 340.503906 25.058594 321.09375 25.058594 297.234375 C 25.058594 273.378906 5.648438 253.96875 -18.210938 253.96875 Z M -18.210938 253.96875 " fill-opacity="1" fill-rule="nonzero"/></g><g clip-path="url(#1c4c782953)"><path fill="#bbe1fa" d="M -18.210938 331.546875 C -37.128906 331.546875 -52.523438 316.15625 -52.523438 297.234375 C -52.523438 278.316406 -37.132812 262.925781 -18.210938 262.925781 C 0.710938 262.925781 16.097656 278.316406 16.097656 297.234375 C 16.097656 316.15625 0.707031 331.546875 -18.210938 331.546875 Z M -18.210938 265.546875 C -35.6875 265.546875 -49.902344 279.761719 -49.902344 297.234375 C -49.902344 314.710938 -35.6875 328.925781 -18.210938 328.925781 C -0.734375 328.925781 13.480469 314.710938 13.480469 297.234375 C 13.480469 279.761719 -0.734375 265.546875 -18.210938 265.546875 Z M -18.210938 265.546875 " fill-opacity="1" fill-rule="nonzero"/><path fill="#bbe1fa" d="M -18.210938 331.546875 C -37.128906 331.546875 -52.523438 316.15625 -52.523438 297.234375 C -52.523438 278.316406 -37.132812 262.925781 -18.210938 262.925781 C 0.710938 262.925781 16.097656 278.316406 16.097656 297.234375 C 16.097656 316.15625 0.707031 331.546875 -18.210938 331.546875 Z M -18.210938 265.546875 C -35.6875 265.546875 -49.902344 279.761719 -49.902344 297.234375 C -49.902344 314.710938 -35.6875 328.925781 -18.210938 328.925781 C -0.734375 328.925781 13.480469 314.710938 13.480469 297.234375 C 13.480469 279.761719 -0.734375 265.546875 -18.210938 265.546875 Z M -18.210938 265.546875 " fill-opacity="1" fill-rule="nonzero"/></g><g clip-path="url(#f421395d3a)"><path fill="#bbe1fa" d="M -18.210938 321.878906 C -31.800781 321.878906 -42.855469 310.824219 -42.855469 297.234375 C -42.855469 283.648438 -31.800781 272.589844 -18.210938 272.589844 C -4.621094 272.589844 6.433594 283.648438 6.433594 297.234375 C 6.433594 310.824219 -4.621094 321.878906 -18.210938 321.878906 Z M -18.210938 275.210938 C -30.355469 275.210938 -40.238281 285.089844 -40.238281 297.234375 C -40.238281 309.382812 -30.355469 319.261719 -18.210938 319.261719 C -6.066406 319.261719 3.8125 309.382812 3.8125 297.234375 C 3.8125 285.089844 -6.066406 275.210938 -18.210938 275.210938 Z M -18.210938 275.210938 " fill-opacity="1" fill-rule="nonzero"/></g><g clip-path="url(#86f88d6e09)"><g clip-path="url(#ffd6556c2c)"><g clip-path="url(#5606a3e5a6)"><path fill="#ececec" d="M 560.871094 123.441406 L 544.164062 106.738281 L 566.984375 100.621094 Z M 544.8125 106.910156 L 560.695312 122.792969 L 566.507812 101.097656 Z M 544.8125 106.910156 " fill-opacity="1" fill-rule="nonzero"/></g></g></g><g clip-path="url(#c11e31e05d)"><g clip-path="url(#254491a495)"><g clip-path="url(#09b831feab)"><path fill="#ececec" d="M 560.171875 121.304688 L 546.300781 107.433594 L 565.246094 102.359375 Z M 546.949219 107.609375 L 559.996094 120.660156 L 564.769531 102.835938 Z M 546.949219 107.609375 " fill-opacity="1" fill-rule="nonzero"/></g></g></g><g clip-path="url(#95ff2f2d29)"><g clip-path="url(#d36e0afd1e)"><g clip-path="url(#43b6b5a8c5)"><path fill="#ececec" d="M 459.351562 415.636719 L 460.726562 439.21875 L 439.613281 428.617188 Z M 460.359375 438.65625 L 459.050781 416.234375 L 440.285156 428.578125 Z M 460.359375 438.65625 " fill-opacity="1" fill-rule="nonzero"/></g></g></g><g clip-path="url(#63fb170ece)"><g clip-path="url(#7daaed0588)"><g clip-path="url(#ca29c249d7)"><path fill="#ececec" d="M 458.453125 417.695312 L 459.597656 437.277344 L 442.066406 428.476562 Z M 459.226562 436.71875 L 458.152344 418.292969 L 442.738281 428.4375 Z M 459.226562 436.71875 " fill-opacity="1" fill-rule="nonzero"/></g></g></g></svg>